<svg width="168" height="49" viewBox="0 0 168 49" fill="none" xmlns="http://www.w3.org/2000/svg">
<path d="M33.384 34.3792C30.9293 36.355 27.4927 37.8368 24.0561 37.8368C16.2011 37.8368 10.8007 31.9095 10.8007 24.0063C10.8007 16.1032 16.2011 10.6698 24.0561 10.6698C27.4927 10.6698 30.9293 11.6576 33.384 14.1274L34.8568 15.6092L42.7119 8.20002L40.7481 6.71817C36.3296 2.7666 30.4384 0.296875 24.0561 0.296875C10.3098 0.296875 0 10.6698 0 24.5003C0 38.3308 10.3098 48.7037 24.0561 48.7037C30.4384 48.7037 36.3296 46.2339 40.7481 42.2824L42.7119 40.8005L34.8568 32.8974L33.384 34.3792Z" fill="white"/>
<path d="M24.2025 33.0418C28.9204 33.0418 32.7449 29.2172 32.7449 24.4994C32.7449 19.7816 28.9204 15.957 24.2025 15.957C19.4847 15.957 15.6602 19.7816 15.6602 24.4994C15.6602 29.2172 19.4847 33.0418 24.2025 33.0418Z" fill="#FF0200"/>
<path d="M68.3308 2.16228C68.62 1.52794 69.4823 1.52794 69.7714 2.16228L71.959 6.96093C72.0754 7.21623 72.3072 7.39256 72.575 7.42951L77.6105 8.12431C78.2762 8.21617 78.5427 9.07528 78.0557 9.55925L74.3724 13.2191C74.1764 13.4139 74.0878 13.6993 74.137 13.9776L75.0617 19.205C75.184 19.8962 74.4863 20.4271 73.8963 20.0918L69.4318 17.5555C69.1943 17.4206 68.9079 17.4206 68.6705 17.5555L64.206 20.0918C63.6159 20.4271 62.9182 19.8962 63.0405 19.205L63.9652 13.9776C64.0144 13.6993 63.9258 13.4139 63.7298 13.2191L60.0466 9.55925C59.5595 9.07528 59.826 8.21617 60.4917 8.12431L65.5272 7.42951C65.795 7.39256 66.0269 7.21623 66.1432 6.96093L68.3308 2.16228Z" fill="#FAD171"/>
<path d="M90.3427 2.16228C90.6541 1.52794 91.5828 1.52794 91.8942 2.16228L94.25 6.96093C94.3753 7.21623 94.625 7.39256 94.9134 7.42951L100.336 8.12431C101.053 8.21617 101.34 9.07528 100.816 9.55925L96.8491 13.2191C96.638 13.4139 96.5426 13.6993 96.5956 13.9776L97.5914 19.205C97.7231 19.8962 96.9718 20.4271 96.3363 20.0918L91.5284 17.5555C91.2727 17.4206 90.9642 17.4206 90.7085 17.5555L85.9006 20.0918C85.2651 20.4271 84.5138 19.8962 84.6455 19.205L85.6413 13.9776C85.6943 13.6993 85.5989 13.4139 85.3878 13.2191L81.4212 9.55925C80.8967 9.07528 81.1837 8.21617 81.9006 8.12431L87.3234 7.42951C87.6119 7.39256 87.8615 7.21623 87.9869 6.96093L90.3427 2.16228Z" fill="#FAD171"/>
<path d="M112.468 2.16228C112.757 1.52794 113.619 1.52794 113.908 2.16228L116.096 6.96093C116.212 7.21623 116.444 7.39256 116.712 7.42951L121.747 8.12431C122.413 8.21617 122.679 9.07528 122.192 9.55925L118.509 13.2191C118.313 13.4139 118.225 13.6993 118.274 13.9776L119.198 19.205C119.321 19.8962 118.623 20.4271 118.033 20.0918L113.568 17.5555C113.331 17.4206 113.045 17.4206 112.807 17.5555L108.343 20.0918C107.753 20.4271 107.055 19.8962 107.177 19.205L108.102 13.9776C108.151 13.6993 108.063 13.4139 107.867 13.2191L104.183 9.55925C103.696 9.07528 103.963 8.21617 104.628 8.12431L109.664 7.42951C109.932 7.39256 110.164 7.21623 110.28 6.96093L112.468 2.16228Z" fill="#FAD171"/>
<path d="M134.479 2.16228C134.791 1.52794 135.719 1.52794 136.031 2.16228L138.387 6.96093C138.512 7.21623 138.762 7.39256 139.05 7.42951L144.473 8.12431C145.19 8.21617 145.477 9.07528 144.952 9.55925L140.986 13.2191C140.775 13.4139 140.679 13.6993 140.732 13.9776L141.728 19.205C141.86 19.8962 141.108 20.4271 140.473 20.0918L135.665 17.5555C135.409 17.4206 135.101 17.4206 134.845 17.5555L130.037 20.0918C129.402 20.4271 128.651 19.8962 128.782 19.205L129.778 13.9776C129.831 13.6993 129.736 13.4139 129.525 13.2191L125.558 9.55925C125.033 9.07528 125.32 8.21617 126.037 8.12431L131.46 7.42951C131.749 7.39256 131.998 7.21623 132.124 6.96093L134.479 2.16228Z" fill="#FAD171"/>
<path d="M157.259 2.16228C157.57 1.52794 158.499 1.52794 158.81 2.16228L161.166 6.96093C161.291 7.21623 161.541 7.39256 161.829 7.42951L167.252 8.12431C167.969 8.21617 168.256 9.07528 167.732 9.55925L163.765 13.2191C163.554 13.4139 163.459 13.6993 163.512 13.9776L164.507 19.205C164.639 19.8962 163.888 20.4271 163.252 20.0918L158.444 17.5555C158.189 17.4206 157.88 17.4206 157.625 17.5555L152.817 20.0918C152.181 20.4271 151.43 19.8962 151.561 19.205L152.557 13.9776C152.61 13.6993 152.515 13.4139 152.304 13.2191L148.337 9.55925C147.813 9.07528 148.1 8.21617 148.817 8.12431L154.239 7.42951C154.528 7.39256 154.778 7.21623 154.903 6.96093L157.259 2.16228Z" fill="#FAD171"/>
<path d="M65.1602 36.4812H66.2614C66.8008 36.4812 67.2458 36.3923 67.5961 36.2143C67.9521 36.0308 68.2162 35.7833 68.3886 35.4718C68.5666 35.1548 68.6556 34.7989 68.6556 34.404C68.6556 33.9369 68.5777 33.5448 68.422 33.2278C68.2663 32.9108 68.0327 32.6717 67.7213 32.5104C67.4098 32.3491 67.015 32.2685 66.5367 32.2685C66.1029 32.2685 65.7191 32.3547 65.3855 32.5271C65.0573 32.6939 64.7987 32.933 64.6096 33.2445C64.4261 33.5559 64.3343 33.923 64.3343 34.3457H62.791C62.791 33.7283 62.9468 33.1666 63.2582 32.6605C63.5697 32.1544 64.0062 31.7512 64.5679 31.4509C65.1352 31.1506 65.7914 31.0004 66.5367 31.0004C67.2708 31.0004 67.9131 31.1311 68.4637 31.3925C69.0143 31.6484 69.4425 32.0321 69.7484 32.5437C70.0543 33.0498 70.2072 33.6811 70.2072 34.4374C70.2072 34.7433 70.1349 35.0714 69.9903 35.4218C69.8513 35.7666 69.6316 36.0892 69.3313 36.3895C69.0365 36.6898 68.6528 36.9373 68.1801 37.1319C67.7074 37.321 67.1401 37.4156 66.4783 37.4156H65.1602V36.4812ZM65.1602 37.7493V36.8233H66.4783C67.2513 36.8233 67.8909 36.915 68.397 37.0986C68.9031 37.2821 69.3007 37.5268 69.5899 37.8327C69.8847 38.1386 70.0904 38.475 70.2072 38.8421C70.3296 39.2036 70.3908 39.5651 70.3908 39.9266C70.3908 40.4938 70.2934 40.9971 70.0988 41.4365C69.9097 41.8758 69.64 42.2485 69.2896 42.5543C68.9448 42.8602 68.5388 43.091 68.0716 43.2467C67.6045 43.4025 67.0956 43.4803 66.545 43.4803C66.0167 43.4803 65.5189 43.4052 65.0518 43.2551C64.5902 43.1049 64.1814 42.888 63.8255 42.6044C63.4695 42.3152 63.1915 41.962 62.9913 41.5449C62.791 41.1223 62.6909 40.6412 62.6909 40.1017H64.2342C64.2342 40.5244 64.326 40.8942 64.5095 41.2113C64.6986 41.5283 64.9656 41.7757 65.3104 41.9537C65.6608 42.1261 66.0723 42.2123 66.545 42.2123C67.0177 42.2123 67.4237 42.1317 67.763 41.9704C68.1078 41.8035 68.372 41.5533 68.5555 41.2196C68.7446 40.8859 68.8391 40.466 68.8391 39.9599C68.8391 39.4538 68.7334 39.0395 68.5221 38.7169C68.3108 38.3888 68.0105 38.1469 67.6212 37.9912C67.2374 37.8299 66.7842 37.7493 66.2614 37.7493H65.1602ZM74.053 42.0204H74.2115C75.1013 42.0204 75.8243 41.8953 76.3804 41.645C76.9366 41.3948 77.3648 41.0583 77.6651 40.6356C77.9654 40.213 78.1712 39.7375 78.2824 39.2091C78.3937 38.6752 78.4493 38.1274 78.4493 37.5657V35.7054C78.4493 35.1548 78.3853 34.6654 78.2574 34.2372C78.1351 33.809 77.9627 33.4503 77.7402 33.1611C77.5233 32.8719 77.2758 32.6522 76.9978 32.502C76.7197 32.3519 76.4249 32.2768 76.1135 32.2768C75.7575 32.2768 75.4378 32.3491 75.1541 32.4937C74.8761 32.6327 74.6397 32.8302 74.445 33.086C74.256 33.3418 74.1114 33.6421 74.0113 33.9869C73.9112 34.3317 73.8611 34.7071 73.8611 35.1131C73.8611 35.4746 73.9056 35.825 73.9946 36.1642C74.0836 36.5035 74.2198 36.8094 74.4033 37.0819C74.5869 37.3544 74.8149 37.5713 75.0874 37.7326C75.3655 37.8883 75.6908 37.9662 76.0634 37.9662C76.4082 37.9662 76.7308 37.8994 77.0311 37.7659C77.337 37.6269 77.6067 37.4406 77.8403 37.207C78.0795 36.9679 78.2685 36.6981 78.4076 36.3978C78.5522 36.0975 78.6356 35.7833 78.6578 35.4552H79.392C79.392 35.9168 79.3002 36.3728 79.1167 36.8233C78.9387 37.2682 78.6884 37.6742 78.3659 38.0412C78.0433 38.4083 77.6651 38.703 77.2313 38.9255C76.7975 39.1424 76.3248 39.2508 75.8132 39.2508C75.2125 39.2508 74.6925 39.1341 74.2532 38.9005C73.8138 38.6669 73.4523 38.3555 73.1687 37.9662C72.8906 37.5768 72.6821 37.1431 72.543 36.6648C72.4096 36.1809 72.3428 35.6915 72.3428 35.1966C72.3428 34.6182 72.4235 34.0759 72.5847 33.5698C72.746 33.0637 72.9852 32.6188 73.3022 32.2351C73.6192 31.8458 74.0113 31.5427 74.4784 31.3258C74.9511 31.1089 75.4962 31.0004 76.1135 31.0004C76.8087 31.0004 77.401 31.1395 77.8904 31.4176C78.3798 31.6956 78.7774 32.0682 79.0833 32.5354C79.3947 33.0026 79.6228 33.5281 79.7673 34.1121C79.9119 34.696 79.9842 35.2967 79.9842 35.914V36.4729C79.9842 37.1013 79.9425 37.7409 79.8591 38.3916C79.7813 39.0367 79.6283 39.654 79.4003 40.2436C79.1778 40.8331 78.8525 41.3614 78.4243 41.8286C77.996 42.2902 77.4371 42.6572 76.7475 42.9297C76.0634 43.1967 75.2181 43.3302 74.2115 43.3302H74.053V42.0204Z" fill="white"/>
<path d="M92.523 37.1162C93.0174 37.1162 93.453 37.0579 93.8298 36.9413C94.2124 36.8189 94.5302 36.6498 94.7834 36.434C95.0424 36.2124 95.2366 35.95 95.3661 35.6468C95.4956 35.3436 95.5604 35.0083 95.5604 34.641C95.5604 33.8946 95.3131 33.3319 94.8187 32.9529C94.3242 32.5739 93.5825 32.3844 92.5936 32.3844H90.7217V37.1162H92.523ZM98.3682 43.5799H96.8495C96.5375 43.5799 96.3079 43.4603 96.1608 43.2213L92.8761 38.7431C92.7761 38.6031 92.6672 38.504 92.5494 38.4457C92.4376 38.3816 92.261 38.3495 92.0197 38.3495H90.7217V43.5799H89.0176V31.0462H92.5936C93.3942 31.0462 94.0858 31.1278 94.6686 31.2911C95.2513 31.4485 95.7311 31.6789 96.1078 31.9821C96.4904 32.2853 96.773 32.6526 96.9555 33.0841C97.1379 33.5098 97.2292 33.9879 97.2292 34.5185C97.2292 34.9617 97.1585 35.3757 97.0173 35.7605C96.876 36.1454 96.67 36.4923 96.3992 36.8014C96.1343 37.1046 95.8076 37.3641 95.4191 37.5798C95.0365 37.7955 94.6009 37.9588 94.1123 38.0696C94.3301 38.192 94.5185 38.3699 94.6774 38.6031L98.3682 43.5799Z" fill="white"/>
<path d="M108.424 42.1979L108.416 43.5799H100.619V31.0462H108.416V32.4281H102.332V36.5914H107.259V37.9209H102.332V42.1979H108.424Z" fill="white"/>
<path d="M121.627 31.0462L116.471 43.5799H114.934L109.778 31.0462H111.147C111.3 31.0462 111.423 31.0841 111.517 31.1599C111.612 31.2357 111.682 31.3319 111.729 31.4485L115.296 40.2912C115.373 40.4895 115.447 40.7052 115.517 40.9384C115.594 41.1717 115.661 41.4166 115.72 41.6731C115.779 41.4166 115.841 41.1717 115.906 40.9384C115.97 40.7052 116.041 40.4895 116.118 40.2912L119.676 31.4485C119.711 31.3494 119.779 31.259 119.879 31.1774C119.985 31.0899 120.112 31.0462 120.259 31.0462H121.627Z" fill="white"/>
<path d="M125.535 43.5799H123.822V31.0462H125.535V43.5799Z" fill="white"/>
<path d="M137.106 42.1979L137.097 43.5799H129.301V31.0462H137.097V32.4281H131.014V36.5914H135.941V37.9209H131.014V42.1979H137.106Z" fill="white"/>
<path d="M156.419 31.0462L152.473 43.5799H150.936L147.731 34.02C147.702 33.9267 147.672 33.8276 147.643 33.7226C147.619 33.6177 147.593 33.5069 147.563 33.3902C147.534 33.5069 147.504 33.6177 147.475 33.7226C147.446 33.8276 147.416 33.9267 147.387 34.02L144.164 43.5799H142.627L138.681 31.0462H140.102C140.255 31.0462 140.382 31.0841 140.482 31.1599C140.588 31.2357 140.656 31.3319 140.685 31.4485L143.299 40.16C143.34 40.3174 143.378 40.4865 143.413 40.6673C143.455 40.8481 143.493 41.0405 143.528 41.2446C143.569 41.0405 143.611 40.8481 143.652 40.6673C143.699 40.4807 143.749 40.3116 143.802 40.16L146.777 31.4485C146.813 31.3494 146.88 31.259 146.981 31.1774C147.086 31.0899 147.213 31.0462 147.36 31.0462H147.855C148.008 31.0462 148.131 31.0841 148.226 31.1599C148.32 31.2357 148.39 31.3319 148.437 31.4485L151.404 40.16C151.457 40.3116 151.504 40.4749 151.545 40.6498C151.593 40.8247 151.637 41.0084 151.678 41.2008C151.707 41.0084 151.74 40.8247 151.775 40.6498C151.81 40.4749 151.849 40.3116 151.89 40.16L154.512 31.4485C154.542 31.3436 154.606 31.2503 154.706 31.1686C154.812 31.087 154.939 31.0462 155.086 31.0462H156.419Z" fill="white"/>
<path d="M165.201 33.0054C165.148 33.0929 165.09 33.1599 165.025 33.2066C164.966 33.2474 164.892 33.2678 164.804 33.2678C164.704 33.2678 164.586 33.2182 164.451 33.1191C164.315 33.02 164.145 32.9121 163.939 32.7955C163.739 32.673 163.494 32.5622 163.206 32.4631C162.923 32.364 162.579 32.3144 162.173 32.3144C161.79 32.3144 161.452 32.3669 161.157 32.4719C160.869 32.571 160.625 32.708 160.425 32.8829C160.23 33.0579 160.083 33.2649 159.983 33.5039C159.883 33.7372 159.833 33.9908 159.833 34.2649C159.833 34.6147 159.918 34.9063 160.089 35.1395C160.266 35.3669 160.495 35.5623 160.778 35.7255C161.066 35.8888 161.39 36.0317 161.749 36.1541C162.114 36.2707 162.485 36.3932 162.862 36.5215C163.244 36.6498 163.615 36.7955 163.974 36.9588C164.339 37.1162 164.663 37.3174 164.945 37.5623C165.234 37.8072 165.463 38.1075 165.634 38.4632C165.811 38.8189 165.899 39.2562 165.899 39.7752C165.899 40.3233 165.805 40.8393 165.616 41.3233C165.428 41.8014 165.151 42.2183 164.786 42.574C164.427 42.9297 163.983 43.2096 163.453 43.4137C162.929 43.6178 162.332 43.7198 161.661 43.7198C160.837 43.7198 160.089 43.574 159.418 43.2825C158.747 42.9851 158.173 42.5857 157.696 42.0842L158.191 41.2795C158.238 41.2154 158.294 41.1629 158.358 41.1221C158.429 41.0755 158.506 41.0521 158.588 41.0521C158.664 41.0521 158.75 41.0842 158.844 41.1484C158.944 41.2067 159.056 41.2825 159.18 41.3758C159.303 41.4691 159.444 41.5711 159.603 41.6819C159.762 41.7927 159.942 41.8947 160.142 41.988C160.348 42.0813 160.581 42.16 160.84 42.2242C161.099 42.2825 161.39 42.3116 161.714 42.3116C162.12 42.3116 162.482 42.2562 162.8 42.1454C163.118 42.0347 163.385 41.8801 163.603 41.6819C163.827 41.4778 163.998 41.2358 164.115 40.9559C164.233 40.676 164.292 40.3641 164.292 40.0201C164.292 39.641 164.204 39.332 164.027 39.0929C163.856 38.848 163.63 38.6439 163.347 38.4807C163.065 38.3174 162.741 38.1804 162.376 38.0696C162.011 37.953 161.64 37.8364 161.263 37.7197C160.887 37.5973 160.516 37.4573 160.151 37.2999C159.786 37.1425 159.462 36.9384 159.18 36.6877C158.897 36.4369 158.667 36.125 158.491 35.7518C158.32 35.3728 158.235 34.9063 158.235 34.3524C158.235 33.9092 158.32 33.4806 158.491 33.0666C158.667 32.6526 158.921 32.2853 159.25 31.9646C159.586 31.6439 159.995 31.3873 160.478 31.1949C160.966 31.0025 161.525 30.9062 162.155 30.9062C162.862 30.9062 163.503 31.017 164.08 31.2386C164.663 31.4602 165.175 31.7809 165.616 32.2007L165.201 33.0054Z" fill="white"/>
</svg>
