<svg width="193" height="59" viewBox="0 0 193 59" fill="none" xmlns="http://www.w3.org/2000/svg">
<path d="M19.8786 44.3163C19.7573 44.194 19.7573 44.3163 19.8786 44.3163L19.2725 43.9494L19.1513 43.8272L4.84843 33.5564C4.84843 33.5564 4.72722 33.5564 4.72722 33.4341L4.4848 33.1896L4.36358 33.0673H4.12116L0 30.1328L8.12112 31.3555C8.48475 31.3555 8.60596 31.4778 8.96959 31.6001C9.0908 31.6001 9.33322 31.7223 9.33322 31.7223C9.69686 31.8446 9.81807 31.9669 10.0605 32.0891C10.3029 32.2114 10.4241 32.3337 10.6665 32.456C10.7878 32.5782 11.0302 32.7005 11.0302 32.8228C11.1514 32.945 11.2726 32.945 11.3938 33.0673C11.6362 33.1896 11.7574 33.3119 11.7574 33.4341C12.1211 33.8009 12.3635 34.1678 12.7271 34.4123L19.1513 43.5826L19.2725 43.7049L19.8786 44.3163Z" fill="#2AD2FF"/>
<path d="M19.8784 58.4997L19.2724 57.5215L19.1512 57.3993L0.121094 30.1328L4.24226 33.0673L4.96952 33.5564L19.2724 43.8272H19.3936L19.8784 44.194C19.8784 44.194 19.9996 44.194 19.9996 44.3163L20.6057 43.8272L39.8782 30.1328L20.4845 57.5215L20.3633 57.6438L19.8784 58.4997Z" fill="url(#paint0_linear_196_275)"/>
<path d="M19.8783 39.6701L19.2723 38.6919L19.151 38.5696L14.4238 31.967L19.151 32.9452H19.2723L19.8783 33.0674L20.4844 32.9452L25.0904 31.8447L20.4844 38.6919V38.8142L19.8783 39.6701Z" fill="#2AD2FF"/>
<path d="M39.9999 30.0107L33.9393 30.8666L31.6363 31.2335C29.8182 31.478 28.1212 32.4562 27.0303 34.0457L20.6062 43.3383L20.485 43.4606L19.8789 44.3165L20.6062 43.5828L20.7274 43.4606L19.8789 44.3165L36.2423 32.5784L39.9999 30.0107Z" fill="#2AD2FF"/>
<path d="M22.9079 10.6922C22.9079 16.0721 13.6959 18.8843 13.6959 24.6311C13.5747 25.9761 13.9384 27.321 14.5444 28.5438C14.5444 28.5438 11.0293 25.1202 11.0293 21.452C11.0293 17.7839 14.4232 12.2817 14.4232 12.2817C14.4232 14.7271 15.3929 15.4607 16.3626 15.583H16.4838C17.5747 15.583 18.1807 14.7271 18.1807 13.5044C18.1807 12.2817 16.8474 11.059 16.8474 8.61356C16.8474 6.29041 19.7565 2.5 19.7565 2.5C21.817 4.94542 22.9079 7.75766 22.9079 10.6922Z" fill="#2AF4FF"/>
<path d="M20.3623 30.2554C17.4533 30.2554 15.2715 27.9323 15.2715 25.12V24.9978C15.2715 18.7619 23.8774 18.1506 23.8774 9.71387C24.1199 10.0807 26.4229 13.2597 26.4229 16.6833C26.4229 20.9628 22.4229 22.0633 22.4229 24.1419C22.4229 24.9978 22.7865 25.6091 23.9987 25.6091C24.1199 25.6091 24.2411 25.6091 24.3623 25.4868C26.6653 24.5087 28.241 22.3078 28.3622 19.7401C28.3622 19.8624 29.5743 30.2554 20.3623 30.2554Z" fill="#2AF4FF"/>
<path d="M24.1204 25.6091C24.2416 25.6091 24.3628 25.6091 24.484 25.4868C23.2719 25.8537 18.7871 26.9541 18.7871 23.775C18.7871 19.8624 25.4537 19.0065 25.4537 15.7052C25.4537 13.6265 24.9689 11.5479 23.878 9.71387C24.1204 10.0807 26.4234 13.2597 26.4234 16.6833C26.4234 20.9628 22.4234 22.0633 22.4234 24.1419C22.5446 24.9978 23.0295 25.6091 24.1204 25.6091Z" fill="#2AD2FF"/>
<path d="M20.4844 12.893C20.4844 15.9498 16.6057 15.7053 16.3633 15.583H16.7269C17.8178 15.583 18.4239 14.7271 18.4239 13.5044C18.4239 12.2817 17.0905 11.059 17.0905 8.61356C17.0905 6.29041 19.9996 2.5 19.9996 2.5C19.0299 4.08952 18.5451 5.80132 18.4239 7.51312C18.4239 10.3254 20.4844 10.5699 20.4844 12.893Z" fill="#2AD2FF"/>
<path d="M70.1253 4.92941C70.2975 4.56853 70.8112 4.56853 70.9834 4.92941L74.3226 11.9273C74.3919 12.0725 74.53 12.1728 74.6895 12.1939L82.3767 13.2072C82.7732 13.2594 82.9319 13.748 82.6419 14.0233L77.0184 19.3615C76.9017 19.4723 76.849 19.6346 76.8783 19.7928L78.29 27.417C78.3628 27.8101 77.9472 28.1121 77.5958 27.9213L70.7811 24.2227C70.6397 24.1459 70.469 24.1459 70.3276 24.2227L63.5128 27.9213C63.1614 28.1121 62.7458 27.8101 62.8186 27.417L64.2304 19.7928C64.2597 19.6346 64.2069 19.4723 64.0902 19.3615L58.4667 14.0233C58.1767 13.748 58.3355 13.2594 58.7319 13.2072L66.4191 12.1939C66.5787 12.1728 66.7168 12.0725 66.7861 11.9273L70.1253 4.92941Z" fill="#FAD171"/>
<path d="M97.0642 4.92941C97.2364 4.56853 97.7501 4.56853 97.9223 4.92941L101.262 11.9273C101.331 12.0725 101.469 12.1728 101.628 12.1939L109.316 13.2072C109.712 13.2594 109.871 13.748 109.581 14.0233L103.957 19.3615C103.841 19.4723 103.788 19.6346 103.817 19.7928L105.229 27.417C105.302 27.8101 104.886 28.1121 104.535 27.9213L97.7201 24.2227C97.5786 24.1459 97.408 24.1459 97.2665 24.2227L90.4518 27.9213C90.1004 28.1121 89.6848 27.8101 89.7576 27.417L91.1693 19.7928C91.1986 19.6346 91.1459 19.4723 91.0292 19.3615L85.4057 14.0233C85.1157 13.748 85.2744 13.2594 85.6709 13.2072L93.3581 12.1939C93.5177 12.1728 93.6557 12.0725 93.725 11.9273L97.0642 4.92941Z" fill="#FAD171"/>
<path d="M124.003 4.92941C124.175 4.56853 124.689 4.56853 124.861 4.92941L128.2 11.9273C128.269 12.0725 128.407 12.1728 128.567 12.1939L136.254 13.2072C136.651 13.2594 136.809 13.748 136.519 14.0233L130.896 19.3615C130.779 19.4723 130.726 19.6346 130.756 19.7928L132.167 27.417C132.24 27.8101 131.825 28.1121 131.473 27.9213L124.659 24.2227C124.517 24.1459 124.346 24.1459 124.205 24.2227L117.39 27.9213C117.039 28.1121 116.623 27.8101 116.696 27.417L118.108 19.7928C118.137 19.6346 118.084 19.4723 117.968 19.3615L112.344 14.0233C112.054 13.748 112.213 13.2594 112.609 13.2072L120.297 12.1939C120.456 12.1728 120.594 12.0725 120.664 11.9273L124.003 4.92941Z" fill="#FAD171"/>
<path d="M150.942 4.92941C151.114 4.56853 151.628 4.56853 151.8 4.92941L155.139 11.9273C155.208 12.0725 155.346 12.1728 155.506 12.1939L163.193 13.2072C163.59 13.2594 163.748 13.748 163.458 14.0233L157.835 19.3615C157.718 19.4723 157.665 19.6346 157.695 19.7928L159.106 27.417C159.179 27.8101 158.764 28.1121 158.412 27.9213L151.597 24.2227C151.456 24.1459 151.285 24.1459 151.144 24.2227L144.329 27.9213C143.978 28.1121 143.562 27.8101 143.635 27.417L145.047 19.7928C145.076 19.6346 145.023 19.4723 144.907 19.3615L139.283 14.0233C138.993 13.748 139.152 13.2594 139.548 13.2072L147.236 12.1939C147.395 12.1728 147.533 12.0725 147.602 11.9273L150.942 4.92941Z" fill="#FAD171"/>
<path d="M177.88 4.92941C178.052 4.56853 178.566 4.56853 178.738 4.92941L182.077 11.9273C182.147 12.0725 182.285 12.1728 182.444 12.1939L190.132 13.2072C190.528 13.2594 190.687 13.748 190.397 14.0233L184.773 19.3615C184.657 19.4723 184.604 19.6346 184.633 19.7928L186.045 27.417C186.118 27.8101 185.702 28.1121 185.351 27.9213L178.536 24.2227C178.395 24.1459 178.224 24.1459 178.082 24.2227L171.268 27.9213C170.916 28.1121 170.501 27.8101 170.574 27.417L171.985 19.7928C172.015 19.6346 171.962 19.4723 171.845 19.3615L166.222 14.0233C165.932 13.748 166.09 13.2594 166.487 13.2072L174.174 12.1939C174.334 12.1728 174.472 12.0725 174.541 11.9273L177.88 4.92941Z" fill="#FAD171"/>
<path d="M61.2476 40.2188H66.3721C70.4967 40.2188 73.3714 43.031 73.3714 46.6556V46.7181C73.3714 50.3428 70.5591 53.155 66.3721 53.155H61.2476V40.2188ZM66.3721 50.5302C68.7468 50.5302 70.3092 48.9679 70.3092 46.7181V46.6556C70.3092 44.4058 68.7468 42.781 66.3721 42.781H64.1848V50.5302H66.3721Z" fill="white"/>
<path d="M75.8716 40.2188H85.8081V42.7185H78.8088V45.3432H84.9957V47.843H78.8088V50.5302H85.9331V53.03H75.9341L75.8716 40.2188Z" fill="white"/>
<path d="M87.5576 51.2177L89.3074 49.2179C90.4948 50.1553 91.7447 50.7802 93.2446 50.7802C94.4319 50.7802 95.1194 50.2802 95.1194 49.5928V49.5303C95.1194 48.7804 94.6194 48.4054 92.4946 47.9055C89.8699 47.218 88.1201 46.5306 88.1201 43.9684V43.9059C88.1201 41.5936 89.9949 40.0312 92.7446 40.0312C94.6194 40.0312 96.3068 40.5937 97.6191 41.6561L96.1193 43.8434C94.9944 43.031 93.807 42.5935 92.6821 42.5935C91.5572 42.5935 90.9948 43.0935 90.9948 43.7184V43.6559C90.9948 44.4683 91.5572 44.7808 93.807 45.3432C96.4942 46.0307 97.9316 46.9681 97.9316 49.1554V49.2179C97.9316 51.7801 95.9318 53.2175 93.1196 53.2175C91.1198 53.2175 89.12 52.53 87.5576 51.2177Z" fill="white"/>
<path d="M100.557 40.2188H103.431V53.0925H100.557V40.2188Z" fill="white"/>
<path d="M106.18 46.6556C106.18 42.9685 109.055 39.9688 113.055 39.9688C115.429 39.9688 116.804 40.5937 118.179 41.7811L116.367 43.9684C115.367 43.1559 114.492 42.656 112.93 42.656C110.805 42.656 109.18 44.4683 109.18 46.6556V46.7181C109.18 49.0929 110.805 50.8427 113.179 50.8427C114.242 50.8427 115.179 50.5927 115.929 50.0303V48.2179H112.992V45.7807H118.679V51.3426C117.304 52.4675 115.492 53.4049 113.055 53.4049C108.93 53.2175 106.18 50.4677 106.18 46.6556Z" fill="white"/>
<path d="M121.429 40.2188H124.116L130.241 48.093V40.2188H133.053V53.0925H130.616L124.241 44.9058V53.0925H121.429V40.2188Z" fill="white"/>
<path d="M137.178 40.1562H143.178C144.865 40.1562 146.115 40.6562 146.99 41.4686C147.74 42.2185 148.115 43.2184 148.115 44.4058V44.4683C148.115 46.5306 146.99 47.843 145.302 48.4679L148.49 53.03H145.115L142.303 48.9054H142.24H139.99V53.03H137.053V40.1562H137.178ZM142.99 46.3431C144.428 46.3431 145.177 45.5932 145.177 44.5308V44.4683C145.177 43.2809 144.365 42.656 142.928 42.656H140.053V46.3431H142.99Z" fill="url(#paint1_linear_196_275)"/>
<path d="M150.552 47.468V40.0937H153.427V47.343C153.427 49.4678 154.489 50.4677 156.239 50.4677C157.989 50.4677 159.051 49.4053 159.051 47.343V40.0312H161.926V47.2805C161.926 51.1552 159.676 53.0925 156.177 53.0925C152.677 53.0925 150.552 51.2177 150.552 47.468Z" fill="url(#paint2_linear_196_275)"/>
<path d="M163.988 51.1552L165.738 49.1554C166.925 50.0928 168.175 50.7177 169.675 50.7177C170.863 50.7177 171.55 50.2177 171.55 49.5303V49.4678C171.55 48.7179 171.05 48.3429 168.925 47.843C166.301 47.1555 164.551 46.4681 164.551 43.9059V43.8434C164.551 41.5311 166.426 39.9688 169.175 39.9688C171.05 39.9688 172.737 40.5312 174.05 41.5936L172.55 43.7809C171.425 42.9685 170.238 42.531 169.113 42.531C167.988 42.531 167.425 43.031 167.425 43.6559V43.5934C167.425 44.4058 167.988 44.7183 170.238 45.2807C172.925 45.9682 174.362 46.9056 174.362 49.0929V49.1554C174.362 51.7176 172.362 53.155 169.55 53.155C167.613 53.155 165.551 52.4675 163.988 51.1552Z" fill="url(#paint3_linear_196_275)"/>
<path d="M176.86 40.1562H179.735V45.2807H185.047V40.1562H187.922V53.03H185.047V47.9055H179.735V53.03H176.86V40.1562Z" fill="url(#paint4_linear_196_275)"/>
<defs>
<linearGradient id="paint0_linear_196_275" x1="-0.000116899" y1="58.5511" x2="-0.000116899" y2="43.5435" gradientUnits="userSpaceOnUse">
<stop offset="0.73" stop-color="#2AF4FF"/>
<stop offset="0.884" stop-color="#2AF4FF"/>
</linearGradient>
<linearGradient id="paint1_linear_196_275" x1="135.841" y1="25.9701" x2="188.461" y2="25.9701" gradientUnits="userSpaceOnUse">
<stop offset="0.73" stop-color="#2AF4FF"/>
<stop offset="0.884" stop-color="#2AF4FF"/>
</linearGradient>
<linearGradient id="paint2_linear_196_275" x1="135.841" y1="25.9701" x2="188.461" y2="25.9701" gradientUnits="userSpaceOnUse">
<stop offset="0.73" stop-color="#2AF4FF"/>
<stop offset="0.884" stop-color="#2AF4FF"/>
</linearGradient>
<linearGradient id="paint3_linear_196_275" x1="135.841" y1="25.9701" x2="188.461" y2="25.9701" gradientUnits="userSpaceOnUse">
<stop offset="0.73" stop-color="#2AF4FF"/>
<stop offset="0.884" stop-color="#2AF4FF"/>
</linearGradient>
<linearGradient id="paint4_linear_196_275" x1="135.839" y1="25.9701" x2="188.459" y2="25.9701" gradientUnits="userSpaceOnUse">
<stop offset="0.73" stop-color="#2AF4FF"/>
<stop offset="0.884" stop-color="#2AF4FF"/>
</linearGradient>
</defs>
</svg>
