<svg width="255" height="53" viewBox="0 0 255 53" fill="none" xmlns="http://www.w3.org/2000/svg">
<path d="M10.2784 18.881V21.0537H3.0826V18.881H10.2784ZM3.99253 7.53483V21.0537H1.20704V7.53483H3.99253ZM9.34065 13.0408V15.1578H3.0826V13.0408H9.34065ZM10.2691 7.53483V9.71679H3.0826V7.53483H10.2691ZM15.1475 7.53483L17.6915 12.2516L20.2356 7.53483H23.4203L19.4928 14.2386L23.5225 21.0537H20.3099L17.6915 16.2441L15.0732 21.0537H11.842L15.881 14.2386L11.9442 7.53483H15.1475ZM33.4704 16.5691H36.2466C36.1909 17.479 35.9402 18.2868 35.4945 18.9925C35.055 19.6981 34.4391 20.249 33.6468 20.6452C32.8607 21.0413 31.9136 21.2394 30.8056 21.2394C29.939 21.2394 29.1622 21.0909 28.4751 20.7937C27.788 20.4904 27.1999 20.0571 26.7109 19.4938C26.2281 18.9306 25.8598 18.2497 25.606 17.4512C25.3522 16.6526 25.2253 15.7582 25.2253 14.7678V13.83C25.2253 12.8396 25.3553 11.9452 25.6153 11.1467C25.8815 10.342 26.2591 9.65799 26.7481 9.0947C27.2433 8.53141 27.8344 8.09812 28.5215 7.79481C29.2086 7.4915 29.9761 7.33985 30.8242 7.33985C31.9507 7.33985 32.9009 7.54412 33.6746 7.95265C34.4546 8.36119 35.0581 8.92448 35.4852 9.64251C35.9185 10.3605 36.1785 11.1776 36.2651 12.0937H33.4797C33.4487 11.549 33.3404 11.0879 33.1547 10.7103C32.969 10.3265 32.6873 10.0387 32.3098 9.84678C31.9384 9.6487 31.4432 9.54966 30.8242 9.54966C30.3599 9.54966 29.9545 9.63632 29.6078 9.80964C29.2612 9.98296 28.9703 10.246 28.735 10.5989C28.4998 10.9517 28.3234 11.3974 28.2058 11.9359C28.0944 12.4682 28.0387 13.0934 28.0387 13.8115V14.7678C28.0387 15.4673 28.0913 16.0832 28.1965 16.6155C28.3018 17.1417 28.4627 17.5873 28.6793 17.9525C28.9022 18.3116 29.1869 18.5839 29.5336 18.7696C29.8864 18.9491 30.3104 19.0389 30.8056 19.0389C31.3874 19.0389 31.8672 18.946 32.2448 18.7603C32.6223 18.5746 32.9102 18.2992 33.1083 17.934C33.3125 17.5688 33.4332 17.1138 33.4704 16.5691ZM48.0979 18.881V21.0537H40.902V18.881H48.0979ZM41.812 7.53483V21.0537H39.0265V7.53483H41.812ZM47.1601 13.0408V15.1578H40.902V13.0408H47.1601ZM48.0886 7.53483V9.71679H40.902V7.53483H48.0886ZM59.3642 18.881V21.0537H52.5584V18.881H59.3642ZM53.459 7.53483V21.0537H50.6735V7.53483H53.459ZM70.6027 18.881V21.0537H63.7969V18.881H70.6027ZM64.6975 7.53483V21.0537H61.912V7.53483H64.6975ZM82.2219 18.881V21.0537H75.0261V18.881H82.2219ZM75.936 7.53483V21.0537H73.1505V7.53483H75.936ZM81.2841 13.0408V15.1578H75.0261V13.0408H81.2841ZM82.2126 7.53483V9.71679H75.0261V7.53483H82.2126ZM95.8002 7.53483V21.0537H93.0147L87.583 11.9916V21.0537H84.7976V7.53483H87.583L93.024 16.6062V7.53483H95.8002ZM104.94 7.53483V21.0537H102.164V7.53483H104.94ZM109.1 7.53483V9.71679H98.0694V7.53483H109.1Z" fill="white"/>
<path d="M132.548 0.899137C132.72 0.538258 133.234 0.538257 133.406 0.899135L136.745 7.897C136.815 8.04223 136.953 8.14255 137.112 8.16358L144.8 9.1769C145.196 9.22916 145.355 9.7177 145.065 9.993L139.441 15.3312C139.325 15.442 139.272 15.6043 139.301 15.7626L140.713 23.3867C140.786 23.7799 140.37 24.0818 140.019 23.8911L133.204 20.1924C133.063 20.1157 132.892 20.1157 132.75 20.1924L125.936 23.8911C125.584 24.0818 125.169 23.7799 125.241 23.3867L126.653 15.7626C126.683 15.6043 126.63 15.442 126.513 15.3312L120.89 9.993C120.6 9.7177 120.758 9.22916 121.155 9.1769L128.842 8.16358C129.002 8.14255 129.14 8.04223 129.209 7.897L132.548 0.899137Z" fill="#FAD171"/>
<path d="M159.487 0.899137C159.659 0.538258 160.173 0.538257 160.345 0.899135L163.684 7.897C163.754 8.04223 163.892 8.14255 164.051 8.16358L171.739 9.1769C172.135 9.22916 172.294 9.7177 172.004 9.993L166.38 15.3312C166.264 15.442 166.211 15.6043 166.24 15.7626L167.652 23.3867C167.725 23.7799 167.309 24.0818 166.958 23.8911L160.143 20.1924C160.001 20.1157 159.831 20.1157 159.689 20.1924L152.875 23.8911C152.523 24.0818 152.108 23.7799 152.18 23.3867L153.592 15.7626C153.622 15.6043 153.569 15.442 153.452 15.3312L147.829 9.993C147.539 9.7177 147.697 9.22916 148.094 9.1769L155.781 8.16358C155.941 8.14255 156.079 8.04223 156.148 7.897L159.487 0.899137Z" fill="#FAD171"/>
<path d="M186.426 0.899137C186.598 0.538258 187.111 0.538257 187.284 0.899135L190.623 7.897C190.692 8.04223 190.83 8.14255 190.99 8.16358L198.677 9.1769C199.073 9.22916 199.232 9.7177 198.942 9.993L193.319 15.3312C193.202 15.442 193.149 15.6043 193.179 15.7626L194.59 23.3867C194.663 23.7799 194.248 24.0818 193.896 23.8911L187.081 20.1924C186.94 20.1157 186.769 20.1157 186.628 20.1924L179.813 23.8911C179.462 24.0818 179.046 23.7799 179.119 23.3867L180.531 15.7626C180.56 15.6043 180.507 15.442 180.391 15.3312L174.767 9.993C174.477 9.7177 174.636 9.22916 175.032 9.1769L182.719 8.16358C182.879 8.14255 183.017 8.04223 183.086 7.897L186.426 0.899137Z" fill="#FAD171"/>
<path d="M213.365 0.899137C213.537 0.538258 214.05 0.538257 214.223 0.899135L217.562 7.897C217.631 8.04223 217.769 8.14255 217.929 8.16358L225.616 9.1769C226.012 9.22916 226.171 9.7177 225.881 9.993L220.258 15.3312C220.141 15.442 220.088 15.6043 220.118 15.7626L221.529 23.3867C221.602 23.7799 221.187 24.0818 220.835 23.8911L214.02 20.1924C213.879 20.1157 213.708 20.1157 213.567 20.1924L206.752 23.8911C206.401 24.0818 205.985 23.7799 206.058 23.3867L207.47 15.7626C207.499 15.6043 207.446 15.442 207.329 15.3312L201.706 9.993C201.416 9.7177 201.575 9.22916 201.971 9.1769L209.658 8.16358C209.818 8.14255 209.956 8.04223 210.025 7.897L213.365 0.899137Z" fill="#FAD171"/>
<path d="M240.303 0.899137C240.475 0.538258 240.989 0.538257 241.161 0.899135L244.5 7.897C244.57 8.04223 244.708 8.14255 244.867 8.16358L252.554 9.1769C252.951 9.22916 253.11 9.7177 252.82 9.993L247.196 15.3312C247.079 15.442 247.027 15.6043 247.056 15.7626L248.468 23.3867C248.541 23.7799 248.125 24.0818 247.774 23.8911L240.959 20.1924C240.817 20.1157 240.647 20.1157 240.505 20.1924L233.691 23.8911C233.339 24.0818 232.924 23.7799 232.996 23.3867L234.408 15.7626C234.437 15.6043 234.385 15.442 234.268 15.3312L228.644 9.993C228.354 9.7177 228.513 9.22916 228.91 9.1769L236.597 8.16358C236.756 8.14255 236.894 8.04223 236.964 7.897L240.303 0.899137Z" fill="#FAD171"/>
<path opacity="0.8" d="M4.2587 45.0776H1.9746L1.96222 44.1182H4.03586C4.37837 44.1182 4.67755 44.0604 4.9334 43.9448C5.18925 43.8293 5.38733 43.6642 5.52764 43.4496C5.67207 43.2309 5.74429 42.971 5.74429 42.6697C5.74429 42.3396 5.68032 42.0713 5.5524 41.865C5.4286 41.6546 5.23671 41.5019 4.97673 41.407C4.72088 41.3079 4.39487 41.2584 3.99872 41.2584H2.24077V49.293H1.0461V40.2804H3.99872C4.4609 40.2804 4.87356 40.3278 5.23671 40.4228C5.59985 40.5135 5.90729 40.658 6.15901 40.856C6.41487 41.05 6.60882 41.2976 6.74087 41.5988C6.87292 41.9001 6.93895 42.2612 6.93895 42.6821C6.93895 43.0535 6.84404 43.3898 6.65421 43.6911C6.46439 43.9882 6.20028 44.2316 5.8619 44.4215C5.52764 44.6113 5.13561 44.733 4.6858 44.7867L4.2587 45.0776ZM4.20299 49.293H1.50416L2.17887 48.3211H4.20299C4.58264 48.3211 4.90451 48.2551 5.16862 48.1231C5.43685 47.991 5.64112 47.8053 5.78143 47.566C5.92173 47.3225 5.99188 47.0357 5.99188 46.7056C5.99188 46.3713 5.93205 46.0824 5.81238 45.839C5.6927 45.5955 5.50494 45.4077 5.24909 45.2757C4.99324 45.1436 4.66311 45.0776 4.2587 45.0776H2.55646L2.56883 44.1182H4.89626L5.15005 44.4648C5.58335 44.5019 5.95062 44.6257 6.25186 44.8362C6.55311 45.0425 6.78214 45.3066 6.93895 45.6285C7.09989 45.9504 7.18036 46.3053 7.18036 46.6932C7.18036 47.2544 7.05656 47.729 6.80896 48.1169C6.56549 48.5007 6.22091 48.7936 5.77524 48.9959C5.32956 49.1939 4.80548 49.293 4.20299 49.293ZM12.4077 41.0789L9.4241 49.293H8.20467L11.6401 40.2804H12.4262L12.4077 41.0789ZM14.9084 49.293L11.9187 41.0789L11.9001 40.2804H12.6862L16.134 49.293H14.9084ZM14.7537 45.9566V46.9346H9.69026V45.9566H14.7537ZM22.2712 47.0151C22.2712 46.8046 22.2382 46.6189 22.1722 46.458C22.1103 46.2929 21.9989 46.1443 21.8379 46.0123C21.6811 45.8802 21.4624 45.7544 21.1818 45.6347C20.9053 45.515 20.5546 45.3933 20.1295 45.2695C19.6838 45.1374 19.2815 44.9909 18.9225 44.83C18.5635 44.6649 18.256 44.4772 18.0002 44.2667C17.7443 44.0563 17.5483 43.8149 17.4121 43.5425C17.2759 43.2701 17.2079 42.9586 17.2079 42.6078C17.2079 42.257 17.2801 41.9331 17.4245 41.636C17.5689 41.3389 17.7753 41.081 18.0435 40.8622C18.3159 40.6394 18.6398 40.4661 19.0153 40.3423C19.3908 40.2185 19.8097 40.1566 20.2719 40.1566C20.9487 40.1566 21.5223 40.2866 21.9927 40.5465C22.4673 40.8024 22.8283 41.1387 23.0759 41.5555C23.3235 41.9682 23.4473 42.4097 23.4473 42.8802H22.2589C22.2589 42.5418 22.1866 42.2426 22.0422 41.9826C21.8978 41.7185 21.6791 41.5122 21.3861 41.3636C21.0931 41.2109 20.7217 41.1346 20.2719 41.1346C19.8468 41.1346 19.4961 41.1986 19.2196 41.3265C18.9431 41.4544 18.7368 41.6277 18.6006 41.8464C18.4685 42.0652 18.4025 42.3148 18.4025 42.5954C18.4025 42.7853 18.4417 42.9586 18.5201 43.1154C18.6027 43.2681 18.7285 43.4104 18.8977 43.5425C19.071 43.6745 19.2897 43.7963 19.5538 43.9077C19.8221 44.0191 20.1419 44.1264 20.5133 44.2296C21.025 44.374 21.4665 44.5349 21.8379 44.7124C22.2093 44.8898 22.5147 45.09 22.7541 45.3128C22.9975 45.5315 23.177 45.7812 23.2926 46.0618C23.4123 46.3383 23.4721 46.6519 23.4721 47.0027C23.4721 47.37 23.3978 47.7021 23.2493 47.9993C23.1007 48.2964 22.8882 48.5502 22.6117 48.7606C22.3352 48.9711 22.003 49.1341 21.6151 49.2496C21.2313 49.3611 20.8022 49.4168 20.3276 49.4168C19.9108 49.4168 19.5002 49.359 19.0958 49.2434C18.6955 49.1279 18.3303 48.9546 18.0002 48.7235C17.6742 48.4924 17.4121 48.2077 17.214 47.8693C17.0201 47.5268 16.9231 47.1306 16.9231 46.6808H18.1116C18.1116 46.9903 18.1714 47.2565 18.2911 47.4793C18.4108 47.698 18.5738 47.8796 18.7801 48.024C18.9906 48.1685 19.2278 48.2758 19.4919 48.3459C19.7602 48.4119 20.0387 48.4449 20.3276 48.4449C20.7444 48.4449 21.0972 48.3872 21.3861 48.2716C21.6749 48.1561 21.8937 47.991 22.0422 47.7764C22.1949 47.5618 22.2712 47.3081 22.2712 47.0151ZM30.8473 48.3211V49.293H26.0749V48.3211H30.8473ZM26.3163 40.2804V49.293H25.1216V40.2804H26.3163ZM30.2159 44.1553V45.1271H26.0749V44.1553H30.2159ZM30.7854 40.2804V41.2584H26.0749V40.2804H30.7854ZM34.8923 49.293H33.0106L33.023 48.3211H34.8923C35.5361 48.3211 36.0726 48.187 36.5017 47.9188C36.9309 47.6464 37.2528 47.2668 37.4674 46.7798C37.6861 46.2888 37.7954 45.7152 37.7954 45.059V44.5081C37.7954 43.9923 37.7335 43.5342 37.6097 43.134C37.4859 42.7295 37.3044 42.3891 37.065 42.1126C36.8257 41.832 36.5327 41.6195 36.186 41.475C35.8435 41.3306 35.4494 41.2584 35.0038 41.2584H32.9734V40.2804H35.0038C35.5939 40.2804 36.1324 40.3794 36.6193 40.5775C37.1063 40.7715 37.5251 41.0541 37.8759 41.4255C38.2308 41.7928 38.5031 42.2385 38.693 42.7626C38.8828 43.2825 38.9777 43.8685 38.9777 44.5205V45.059C38.9777 45.711 38.8828 46.2991 38.693 46.8232C38.5031 47.3431 38.2287 47.7867 37.8697 48.154C37.5148 48.5213 37.0856 48.804 36.5822 49.002C36.0829 49.196 35.5196 49.293 34.8923 49.293ZM33.6481 40.2804V49.293H32.4535V40.2804H33.6481ZM51.1098 44.5019V45.0714C51.1098 45.7482 51.0252 46.3548 50.856 46.8913C50.6868 47.4277 50.4433 47.8837 50.1256 48.2592C49.8078 48.6348 49.4261 48.9216 48.9804 49.1196C48.5389 49.3177 48.0437 49.4168 47.4948 49.4168C46.9625 49.4168 46.4735 49.3177 46.0278 49.1196C45.5863 48.9216 45.2025 48.6348 44.8765 48.2592C44.5546 47.8837 44.305 47.4277 44.1275 46.8913C43.9501 46.3548 43.8613 45.7482 43.8613 45.0714V44.5019C43.8613 43.8252 43.948 43.2206 44.1213 42.6883C44.2988 42.1518 44.5484 41.6958 44.8703 41.3203C45.1922 40.9406 45.5739 40.6518 46.0154 40.4537C46.4611 40.2556 46.9501 40.1566 47.4825 40.1566C48.0313 40.1566 48.5265 40.2556 48.9681 40.4537C49.4137 40.6518 49.7955 40.9406 50.1132 41.3203C50.4351 41.6958 50.6806 42.1518 50.8498 42.6883C51.0231 43.2206 51.1098 43.8252 51.1098 44.5019ZM49.9275 45.0714V44.4896C49.9275 43.9531 49.8718 43.4785 49.7604 43.0659C49.6531 42.6532 49.4942 42.3066 49.2837 42.026C49.0733 41.7453 48.8154 41.5328 48.51 41.3884C48.2088 41.244 47.8662 41.1717 47.4825 41.1717C47.1111 41.1717 46.7747 41.244 46.4735 41.3884C46.1764 41.5328 45.9205 41.7453 45.7059 42.026C45.4955 42.3066 45.3325 42.6532 45.2169 43.0659C45.1014 43.4785 45.0436 43.9531 45.0436 44.4896V45.0714C45.0436 45.612 45.1014 46.0907 45.2169 46.5075C45.3325 46.9201 45.4976 47.2689 45.7121 47.5536C45.9308 47.8342 46.1888 48.0467 46.4859 48.1912C46.7871 48.3356 47.1234 48.4078 47.4948 48.4078C47.8828 48.4078 48.2273 48.3356 48.5286 48.1912C48.8298 48.0467 49.0836 47.8342 49.2899 47.5536C49.5004 47.2689 49.6593 46.9201 49.7666 46.5075C49.8739 46.0907 49.9275 45.612 49.9275 45.0714ZM59.9582 40.2804V49.293H58.7574L54.2201 42.3416V49.293H53.0255V40.2804H54.2201L58.7759 47.2503V40.2804H59.9582ZM69.571 40.268H69.67V41.2398H69.571C68.9644 41.2398 68.4568 41.3389 68.0483 41.5369C67.6397 41.7309 67.3158 41.9929 67.0764 42.3231C66.8371 42.6491 66.6638 43.0163 66.5565 43.4249C66.4533 43.8334 66.4017 44.2481 66.4017 44.6691V45.9937C66.4017 46.394 66.4492 46.7489 66.5441 47.0584C66.639 47.3638 66.769 47.6217 66.9341 47.8321C67.0991 48.0426 67.2848 48.2015 67.4912 48.3088C67.7016 48.4161 67.9203 48.4697 68.1473 48.4697C68.4114 48.4697 68.6466 48.4202 68.8529 48.3211C69.0593 48.218 69.2326 48.0756 69.3729 47.894C69.5173 47.7083 69.6267 47.4896 69.701 47.2379C69.7753 46.9862 69.8124 46.7097 69.8124 46.4084C69.8124 46.1402 69.7794 45.8823 69.7134 45.6347C69.6473 45.383 69.5462 45.1601 69.41 44.9662C69.2739 44.7681 69.1026 44.6134 68.8963 44.5019C68.6941 44.3864 68.4527 44.3286 68.1721 44.3286C67.8543 44.3286 67.5572 44.407 67.2807 44.5638C67.0083 44.7165 66.7834 44.9187 66.606 45.1705C66.4327 45.4181 66.3336 45.6883 66.3089 45.9813L65.7023 45.9751C65.76 45.513 65.8673 45.1189 66.0241 44.7929C66.1851 44.4627 66.3832 44.1945 66.6184 43.9882C66.8577 43.7777 67.1239 43.625 67.4169 43.5301C67.714 43.4311 68.0276 43.3816 68.3578 43.3816C68.8076 43.3816 69.1955 43.4661 69.5215 43.6353C69.8475 43.8045 70.1157 44.0315 70.3262 44.3162C70.5366 44.5968 70.6914 44.9146 70.7904 45.2695C70.8936 45.6203 70.9452 45.9813 70.9452 46.3527C70.9452 46.7778 70.8853 47.176 70.7656 47.5474C70.646 47.9188 70.4665 48.2448 70.2271 48.5254C69.9919 48.806 69.701 49.0247 69.3543 49.1815C69.0077 49.3384 68.6053 49.4168 68.1473 49.4168C67.6603 49.4168 67.2353 49.3177 66.8722 49.1196C66.509 48.9174 66.2078 48.6492 65.9684 48.315C65.7291 47.9807 65.5496 47.6093 65.4299 47.2008C65.3102 46.7922 65.2504 46.3775 65.2504 45.9566V45.4181C65.2504 44.7825 65.3144 44.1594 65.4423 43.5487C65.5702 42.9379 65.791 42.385 66.1046 41.8898C66.4224 41.3946 66.8618 41.0005 67.4231 40.7075C67.9843 40.4145 68.7003 40.268 69.571 40.268ZM76.0021 40.2804H78.9857C79.6624 40.2804 80.234 40.3835 80.7003 40.5899C81.1707 40.7962 81.5277 41.1016 81.7712 41.506C82.0187 41.9063 82.1425 42.3994 82.1425 42.9854C82.1425 43.3981 82.058 43.7756 81.8888 44.1182C81.7237 44.4565 81.4843 44.7454 81.1707 44.9848C80.8612 45.22 80.4898 45.3954 80.0565 45.5109L79.7223 45.6409H76.9182L76.9058 44.6691H79.0228C79.452 44.6691 79.8089 44.5948 80.0937 44.4462C80.3784 44.2935 80.593 44.0893 80.7374 43.8334C80.8819 43.5776 80.9541 43.2949 80.9541 42.9854C80.9541 42.6388 80.886 42.3354 80.7498 42.0755C80.6136 41.8155 80.399 41.6154 80.1061 41.475C79.8172 41.3306 79.4437 41.2584 78.9857 41.2584H77.1968V49.293H76.0021V40.2804ZM81.2698 49.293L79.0785 45.2076L80.3227 45.2014L82.5449 49.2187V49.293H81.2698ZM89.6663 48.3211V49.293H84.8939V48.3211H89.6663ZM85.1353 40.2804V49.293H83.9406V40.2804H85.1353ZM89.035 44.1553V45.1271H84.8939V44.1553H89.035ZM89.6044 40.2804V41.2584H84.8939V40.2804H89.6044ZM94.1818 47.925L96.8373 40.2804H98.131L94.7946 49.293H93.8723L94.1818 47.925ZM91.6996 40.2804L94.3303 47.925L94.6584 49.293H93.7361L90.4059 40.2804H91.6996ZM100.752 40.2804V49.293H99.5576V40.2804H100.752ZM108.777 48.3211V49.293H104.005V48.3211H108.777ZM104.246 40.2804V49.293H103.052V40.2804H104.246ZM108.146 44.1553V45.1271H104.005V44.1553H108.146ZM108.716 40.2804V41.2584H104.005V40.2804H108.716ZM112.754 46.5694L114.543 40.2804H115.41L114.909 42.7254L112.983 49.293H112.123L112.754 46.5694ZM110.904 40.2804L112.327 46.4456L112.754 49.293H111.9L109.715 40.2804H110.904ZM117.725 46.4394L119.118 40.2804H120.312L118.133 49.293H117.279L117.725 46.4394ZM115.54 40.2804L117.279 46.5694L117.911 49.293H117.05L115.193 42.7254L114.686 40.2804H115.54ZM126.567 47.0151C126.567 46.8046 126.534 46.6189 126.468 46.458C126.406 46.2929 126.295 46.1443 126.134 46.0123C125.977 45.8802 125.758 45.7544 125.478 45.6347C125.201 45.515 124.85 45.3933 124.425 45.2695C123.98 45.1374 123.577 44.9909 123.218 44.83C122.859 44.6649 122.552 44.4772 122.296 44.2667C122.04 44.0563 121.844 43.8149 121.708 43.5425C121.572 43.2701 121.504 42.9586 121.504 42.6078C121.504 42.257 121.576 41.9331 121.72 41.636C121.865 41.3389 122.071 41.081 122.339 40.8622C122.612 40.6394 122.936 40.4661 123.311 40.3423C123.687 40.2185 124.106 40.1566 124.568 40.1566C125.245 40.1566 125.818 40.2866 126.289 40.5465C126.763 40.8024 127.124 41.1387 127.372 41.5555C127.619 41.9682 127.743 42.4097 127.743 42.8802H126.555C126.555 42.5418 126.483 42.2426 126.338 41.9826C126.194 41.7185 125.975 41.5122 125.682 41.3636C125.389 41.2109 125.018 41.1346 124.568 41.1346C124.143 41.1346 123.792 41.1986 123.516 41.3265C123.239 41.4544 123.033 41.6277 122.897 41.8464C122.764 42.0652 122.698 42.3148 122.698 42.5954C122.698 42.7853 122.738 42.9586 122.816 43.1154C122.899 43.2681 123.024 43.4104 123.194 43.5425C123.367 43.6745 123.586 43.7963 123.85 43.9077C124.118 44.0191 124.438 44.1264 124.809 44.2296C125.321 44.374 125.762 44.5349 126.134 44.7124C126.505 44.8898 126.811 45.09 127.05 45.3128C127.293 45.5315 127.473 45.7812 127.589 46.0618C127.708 46.3383 127.768 46.6519 127.768 47.0027C127.768 47.37 127.694 47.7021 127.545 47.9993C127.397 48.2964 127.184 48.5502 126.908 48.7606C126.631 48.9711 126.299 49.1341 125.911 49.2496C125.527 49.3611 125.098 49.4168 124.624 49.4168C124.207 49.4168 123.796 49.359 123.392 49.2434C122.991 49.1279 122.626 48.9546 122.296 48.7235C121.97 48.4924 121.708 48.2077 121.51 47.8693C121.316 47.5268 121.219 47.1306 121.219 46.6808H122.408C122.408 46.9903 122.467 47.2565 122.587 47.4793C122.707 47.698 122.87 47.8796 123.076 48.024C123.287 48.1685 123.524 48.2758 123.788 48.3459C124.056 48.4119 124.335 48.4449 124.624 48.4449C125.04 48.4449 125.393 48.3872 125.682 48.2716C125.971 48.1561 126.19 47.991 126.338 47.7764C126.491 47.5618 126.567 47.3081 126.567 47.0151Z" fill="#747E8B"/>
<g clipPath="url(#clip0_196_259)">
<path d="M143.715 42.0199C143.715 42.0199 142.798 41.9324 142.798 42.7164V46.1988H148.855V47.2439C148.855 47.2439 148.873 47.7661 148.304 47.7661H142.798V52.2936H149.406C149.406 52.2936 153.407 51.7012 153.444 47.7661V42.0199H143.715ZM153.26 36.4473H141.329C137.015 37.4222 136.923 40.8178 136.923 40.8178V52.2936H141.513V41.8456C141.513 40.9574 142.43 40.8012 142.43 40.8012H153.261V36.4473H153.26ZM169.011 49.0096C168.696 49.2111 168.464 49.359 168.299 49.4533C167.711 49.8027 167.15 50.0721 166.63 50.2871C165.877 50.5829 165.206 50.7308 164.604 50.7308C162.537 50.7308 160.826 50.1256 159.443 48.9017C158.06 47.6778 157.377 46.1452 157.377 44.2897C157.377 42.5013 157.993 40.9544 159.239 39.6361C160.484 38.3186 161.99 37.6727 163.769 37.6727C164.509 37.6727 165.302 37.7934 166.123 38.05C167.191 38.3722 168.053 38.8567 168.737 39.4882L167.546 40.7522C167.04 40.2821 166.384 39.9319 165.617 39.7169C165.042 39.5554 164.413 39.4754 163.714 39.4754C162.469 39.4754 161.415 39.9584 160.58 40.9137C159.745 41.8818 159.321 43.025 159.321 44.3697C159.321 45.7015 159.8 46.7904 160.758 47.6649C161.716 48.5388 162.934 48.9824 164.412 48.9824C165.028 48.9824 165.658 48.7938 166.301 48.4316C166.835 48.0415 167.109 47.8528 167.122 47.8393V45.0827H163.126L163.7 43.3615H169.011V49.0096ZM181.083 45.6472C181.083 46.9783 180.59 48.135 179.605 49.1032C178.619 50.0713 177.401 50.5693 175.951 50.5693C174.609 50.5693 173.432 50.0849 172.419 49.1303C171.406 48.1758 170.913 47.019 170.913 45.6608C170.913 44.3161 171.393 43.1593 172.351 42.164C173.308 41.1687 174.486 40.685 175.868 40.685C177.401 40.685 178.647 41.1559 179.618 42.1104C180.59 43.0386 181.083 44.2218 181.083 45.6472ZM179.207 45.6743C179.207 44.7734 178.893 44.0067 178.263 43.3879C177.634 42.7556 176.854 42.4462 175.923 42.4462C175.047 42.4462 174.308 42.7692 173.692 43.4151C173.076 44.0603 172.775 44.7998 172.775 45.6336C172.775 46.5082 173.089 47.2477 173.705 47.8664C174.321 48.4852 175.088 48.8074 176.018 48.8074C176.881 48.8074 177.62 48.498 178.25 47.8792C178.893 47.2605 179.208 46.521 179.208 45.6743H179.207ZM192.99 45.6472C192.99 46.9783 192.498 48.135 191.512 49.1032C190.526 50.0713 189.309 50.5693 187.858 50.5693C186.517 50.5693 185.34 50.0849 184.327 49.1303C183.314 48.1758 182.821 47.019 182.821 45.6608C182.821 44.3161 183.301 43.1593 184.258 42.164C185.216 41.1687 186.393 40.685 187.775 40.685C189.309 40.685 190.554 41.1559 191.526 42.1104C192.498 43.0386 192.99 44.2218 192.99 45.6472ZM191.115 45.6743C191.115 44.7734 190.8 44.0067 190.171 43.3879C189.542 42.7556 188.761 42.4462 187.83 42.4462C186.955 42.4462 186.215 42.7692 185.599 43.4151C184.983 44.0603 184.682 44.7998 184.682 45.6336C184.682 46.5082 184.997 47.2477 185.614 47.8664C186.229 48.4852 186.996 48.8074 187.926 48.8074C188.789 48.8074 189.527 48.498 190.157 47.8792C190.8 47.2605 191.116 46.521 191.116 45.6743H191.115ZM204.009 50.3L202.284 50.5558V48.9553L201.915 49.3582C201.589 49.6509 201.22 49.8958 200.82 50.0849C200.232 50.3449 199.592 50.4781 198.945 50.475C197.604 50.475 196.453 50.0042 195.523 49.0489C194.592 48.0935 194.127 46.9647 194.127 45.6472C194.127 44.2889 194.592 43.1193 195.509 42.1504C196.427 41.1815 197.549 40.6978 198.89 40.6978C199.657 40.6978 200.327 40.8186 200.888 41.0608C201.285 41.2359 201.628 41.4645 201.915 41.7475C202.011 41.8682 202.107 42.0025 202.203 42.1233V37.9278L204.036 37.672L204.009 50.3ZM202.394 45.7679C202.394 44.8269 202.065 44.0331 201.395 43.3879C200.724 42.7284 199.971 42.4062 199.109 42.4062C198.151 42.4062 197.385 42.7156 196.796 43.3344C196.248 43.9252 195.961 44.6519 195.961 45.4993C195.961 46.4538 196.248 47.2469 196.823 47.8657C197.397 48.4844 198.124 48.7938 199.013 48.7938C199.889 48.7938 200.656 48.5116 201.34 47.9336C202.038 47.3412 202.395 46.6153 202.395 45.7679H202.394ZM213.685 39.6769H208.553V43.025H212.535V44.7462H208.553V50.2871L206.555 50.5693V37.9413H213.288L213.685 39.6769ZM217.805 38.6944L216.573 40.187L215.396 38.6944L216.642 37.2154L217.805 38.6944ZM217.435 50.3L215.602 50.5422V41.1959L217.435 40.9272V50.3007V50.3ZM225.716 40.8329L224.854 42.742C224.741 42.7255 224.626 42.7166 224.512 42.7156C224.334 42.7156 224.156 42.7292 223.978 42.7556C223.799 42.782 223.608 42.8499 223.403 42.9443C223.02 43.1057 222.691 43.4551 222.404 43.9795C222.086 44.5747 221.922 45.2343 221.924 45.903V50.2871L220.091 50.5693V41.1959L221.788 40.9001V42.8499C222.007 42.5134 222.24 42.1776 222.458 41.8282C222.773 41.4781 223.143 41.223 223.554 41.0744C223.772 40.9944 224.17 40.9265 224.771 40.8729C225.346 40.8329 225.675 40.8058 225.716 40.8329ZM239.375 50.3L237.541 50.5558V44.141C237.541 43.5487 237.404 43.1186 237.13 42.8499C236.857 42.5805 236.446 42.4462 235.912 42.4462C235.269 42.4462 234.776 42.702 234.448 43.2129C234.228 43.5623 234.105 43.9388 234.105 44.3153V50.2864L232.272 50.6093V44.181C232.272 43.6166 232.135 43.1857 231.874 42.8907C231.601 42.5941 231.245 42.4462 230.779 42.4462H230.602C229.958 42.4462 229.492 42.702 229.205 43.2265C228.986 43.6166 228.877 44.1139 228.877 44.719V50.2864L226.975 50.6093V41.1959L228.685 40.9137V42.1104C228.877 41.8275 229.068 41.5988 229.247 41.4381C229.739 40.9944 230.314 40.7786 230.957 40.7786C231.682 40.7786 232.216 40.8865 232.586 41.1151C232.9 41.3038 233.202 41.6796 233.503 42.2176C234.132 41.263 235.022 40.7786 236.2 40.7786C237.322 40.7786 238.157 41.1151 238.704 41.8011C239.156 42.3655 239.375 43.1993 239.375 44.2889V50.3ZM247.753 47.4627C247.753 48.3229 247.438 49.036 246.809 49.5876C246.18 50.1521 245.385 50.4214 244.427 50.4214C243.702 50.4214 243.058 50.26 242.47 49.937C241.881 49.6148 241.444 49.2511 241.156 48.821L242.443 47.7185C242.538 47.8528 242.621 47.96 242.703 48.0407C243.182 48.5116 243.757 48.7538 244.427 48.7538C244.893 48.7538 245.262 48.6331 245.522 48.4044C245.796 48.1758 245.919 47.8528 245.919 47.4355C245.919 46.9654 245.605 46.6425 244.975 46.4674C243.729 46.1045 243.058 45.903 242.963 45.8622C242.388 45.58 241.977 45.2842 241.717 44.9477C241.43 44.5576 241.279 44.0467 241.279 43.3879C241.279 42.5805 241.594 41.909 242.21 41.3709C242.826 40.8329 243.565 40.5771 244.413 40.5771C245.057 40.5771 245.659 40.7114 246.206 40.9944C246.754 41.2766 247.15 41.5724 247.383 41.9225L246.288 43.065C246.124 42.9071 245.945 42.7632 245.755 42.6349C245.317 42.3391 244.893 42.1912 244.496 42.1912C244.112 42.1912 243.798 42.2719 243.551 42.4326C243.263 42.6349 243.113 42.9307 243.113 43.3208C243.113 43.6973 243.25 43.9795 243.538 44.1546C243.784 44.3025 244.304 44.464 245.126 44.6383C245.946 44.8269 246.576 45.1499 247.028 45.6072C247.534 46.0909 247.753 46.6961 247.753 47.4627Z" fill="white"/>
</g>
<defs>
<clipPath id="clip0_196_259">
<rect width="110.924" height="15.8463" fill="white" transform="translate(136.923 36.4463)"/>
</clipPath>
</defs>
</svg>
