<svg width="154" height="55" viewBox="0 0 154 55" fill="none" xmlns="http://www.w3.org/2000/svg">
<path d="M64.808 5.01149H68.1344V4.24061H60.6934V5.01149H64.0064V13.3867H64.808V5.01149ZM71.1002 6.85377C70.732 6.84924 70.3696 6.94295 70.0518 7.12482C69.734 7.30669 69.473 7.56984 69.2967 7.88598L69.1764 6.85377H68.553V13.3867H69.3145V9.67599C69.3145 8.36941 69.9156 7.5724 71.0913 7.5724H71.9195V6.85377H71.1002ZM77.9935 6.85377V10.4338C77.9935 11.8057 77.2721 12.7987 75.9228 12.7987C74.814 12.7987 74.0125 12.1062 74.0125 10.6298V6.85377H73.2376V10.7735C73.2376 12.446 74.2173 13.5174 75.8026 13.5174C76.2522 13.5436 76.6999 13.4415 77.0912 13.2234C77.4826 13.0054 77.8007 12.6808 78.0068 12.2892L78.1271 13.3867H78.7505V6.85377H77.9935ZM80.3981 11.5183C80.4382 12.7334 81.4134 13.5174 83.1635 13.5174C84.6731 13.5174 85.822 12.7987 85.822 11.5575C85.822 10.5253 85.2208 10.0026 84.0318 9.83279L82.6158 9.62373C81.7073 9.50614 81.3199 9.17949 81.3199 8.55233C81.3199 7.79451 82.0413 7.36334 83.07 7.36334C84.1254 7.36334 84.8868 7.83371 84.9135 8.72219H85.6884C85.6617 7.41561 84.5662 6.72312 83.0566 6.72312C81.6272 6.72312 80.5718 7.44174 80.5718 8.55233C80.5718 9.58453 81.2131 10.1202 82.4688 10.3032L83.8982 10.5122C84.6998 10.6167 85.0471 10.9564 85.0471 11.6228C85.0471 12.4198 84.299 12.8771 83.1368 12.8771C81.9745 12.8771 81.2398 12.3806 81.1997 11.5183H80.3981ZM89.3221 13.3867H90.1637V12.6898H89.4289C89.3126 12.7039 89.1946 12.6913 89.0841 12.6532C88.9736 12.615 88.8736 12.5523 88.792 12.47C88.7105 12.3877 88.6496 12.2881 88.614 12.1788C88.5785 12.0696 88.5694 11.9538 88.5873 11.8406V7.5332H90.1771V6.85377H88.5873V5.18135H87.8258V6.30501C87.8258 6.68392 87.6789 6.85377 87.2514 6.85377H86.5567V7.5332H87.8258V11.8885C87.8013 12.088 87.8229 12.2903 87.8889 12.4806C87.9548 12.6709 88.0636 12.8442 88.2072 12.988C88.3507 13.1317 88.5254 13.2422 88.7183 13.3112C88.9113 13.3802 89.1176 13.406 89.3221 13.3867ZM97.7517 9.92425C97.7833 9.50486 97.7239 9.08368 97.5775 8.68831C97.431 8.29294 97.2007 7.93231 96.9018 7.63006C96.6028 7.32781 96.242 7.09077 95.8428 6.93447C95.4436 6.77817 95.0152 6.70615 94.5856 6.72312C94.1382 6.7117 93.6935 6.79323 93.2807 6.96231C92.8679 7.13139 92.4965 7.38418 92.1909 7.704C91.8854 8.02382 91.6527 8.40338 91.5082 8.81763C91.3637 9.23188 91.3107 9.6714 91.3527 10.1072C91.3112 10.545 91.3655 10.9865 91.5119 11.4022C91.6583 11.818 91.8935 12.1985 92.2018 12.5186C92.51 12.8386 92.8844 13.0909 93.3 13.2586C93.7156 13.4263 94.163 13.5056 94.6123 13.4912C95.2889 13.5224 95.9567 13.3309 96.5089 12.9471C97.061 12.5634 97.4657 12.0097 97.6582 11.3746H96.87C96.6994 11.8201 96.3892 12.2015 95.9838 12.4643C95.5783 12.7271 95.0983 12.8579 94.6123 12.8379C94.278 12.8507 93.9446 12.7941 93.6342 12.6719C93.3238 12.5498 93.0434 12.3648 92.8112 12.1291C92.5791 11.8934 92.4005 11.6124 92.2873 11.3045C92.1741 10.9965 92.1287 10.6686 92.1542 10.3424H97.7517V9.92425ZM94.5856 7.36334C94.9015 7.35188 95.2165 7.40474 95.5104 7.51857C95.8044 7.6324 96.071 7.80471 96.2933 8.02459C96.5156 8.24447 96.6888 8.50712 96.8018 8.79589C96.9149 9.08466 96.9654 9.39326 96.9502 9.70213H92.1676C92.1634 9.39165 92.2233 9.08354 92.3437 8.79623C92.4641 8.50891 92.6425 8.24829 92.8682 8.02996C93.0939 7.81162 93.3624 7.64005 93.6574 7.52552C93.9525 7.41098 94.2682 7.35582 94.5856 7.36334ZM104.899 3.84863V8.01663C104.621 7.60408 104.238 7.26843 103.789 7.04191C103.34 6.81539 102.839 6.70561 102.334 6.72312C101.887 6.72508 101.445 6.81767 101.037 6.99505C100.628 7.17243 100.262 7.43073 99.9604 7.75365C99.6591 8.07657 99.4295 8.45709 99.2862 8.87118C99.1429 9.28526 99.0889 9.72391 99.1277 10.1594C99.0897 10.5909 99.1448 11.0255 99.2894 11.4348C99.4341 11.8442 99.665 12.2193 99.9672 12.5358C100.269 12.8524 100.636 13.1033 101.044 13.2724C101.452 13.4415 101.891 13.5249 102.334 13.5174C102.841 13.5295 103.343 13.4147 103.792 13.1837C104.241 12.9527 104.622 12.6133 104.899 12.1977L105.032 13.3867H105.674V3.84863H104.899ZM102.401 12.8641C100.958 12.8641 99.9293 11.8711 99.9293 10.1638C99.9293 8.47829 100.931 7.40689 102.401 7.39383C103.777 7.38076 104.872 8.46523 104.872 10.1638C104.91 10.5035 104.874 10.8471 104.767 11.1724C104.66 11.4976 104.484 11.7972 104.251 12.0518C104.018 12.3064 103.733 12.5103 103.414 12.6502C103.095 12.7901 102.75 12.863 102.401 12.8641ZM110.122 10.1333C110.09 10.5759 110.153 11.0202 110.308 11.4373C110.462 11.8544 110.705 12.235 111.02 12.5543C111.335 12.8735 111.715 13.1243 112.136 13.2902C112.557 13.4562 113.009 13.5335 113.462 13.5174C113.915 13.5335 114.367 13.4562 114.788 13.2902C115.209 13.1243 115.589 12.8735 115.904 12.5543C116.219 12.235 116.462 11.8544 116.617 11.4373C116.771 11.0202 116.834 10.5759 116.802 10.1333C116.837 9.68891 116.776 9.24226 116.623 8.82254C116.469 8.40282 116.227 8.01948 115.912 7.6976C115.597 7.37572 115.215 7.12254 114.793 6.95462C114.371 6.78669 113.918 6.70781 113.462 6.72312C113.007 6.70781 112.553 6.78669 112.131 6.95462C111.709 7.12254 111.328 7.37572 111.012 7.6976C110.697 8.01948 110.455 8.40282 110.302 8.82254C110.148 9.24226 110.087 9.68891 110.122 10.1333ZM110.924 10.1202C110.883 9.77239 110.919 9.42007 111.028 9.08674C111.138 8.75341 111.319 8.44673 111.559 8.18711C111.799 7.9275 112.093 7.72091 112.421 7.58112C112.749 7.44133 113.104 7.37154 113.462 7.37641C113.82 7.37154 114.175 7.44133 114.503 7.58112C114.831 7.72091 115.125 7.9275 115.365 8.18711C115.606 8.44673 115.786 8.75341 115.896 9.08674C116.005 9.42007 116.041 9.77239 116 10.1202C116.04 10.4672 116.003 10.8184 115.893 11.1504C115.783 11.4825 115.602 11.7878 115.362 12.0461C115.122 12.3044 114.828 12.5098 114.5 12.6485C114.173 12.7873 113.819 12.8563 113.462 12.851C113.105 12.8563 112.751 12.7873 112.424 12.6485C112.096 12.5098 111.803 12.3044 111.563 12.0461C111.323 11.7878 111.141 11.4825 111.031 11.1504C110.921 10.8184 110.885 10.4672 110.924 10.1202ZM121.598 6.72312C121.138 6.68988 120.679 6.78834 120.275 7.00646C119.872 7.22458 119.542 7.55291 119.327 7.9513L119.207 6.85377H118.579V13.3867H119.34V9.80665C119.34 8.43474 120.075 7.44174 121.478 7.44174C122.635 7.44174 123.455 8.13858 123.455 9.61067V13.3867H124.23V9.46694C124.271 9.11141 124.232 8.75143 124.117 8.41189C124.001 8.07236 123.812 7.76137 123.562 7.50043C123.312 7.2395 123.006 7.03485 122.667 6.90064C122.328 6.76643 121.963 6.70586 121.598 6.72312Z" fill="white"/>
<path d="M121.781 20.6011C120.324 20.6694 118.868 20.4517 117.499 19.9608C116.13 19.47 114.875 18.7159 113.809 17.7432C112.742 18.716 111.488 19.4701 110.118 19.9609C108.749 20.4518 107.293 20.6695 105.837 20.6011C105.837 25.7212 104.716 33.0572 113.809 36.0353C122.902 33.0563 121.781 25.7212 121.781 20.6011Z" fill="#3672FF"/>
<path d="M110.246 27.1491L112.991 29.9365L118.262 24.5978L117.505 23.8408L112.991 28.4139L110.992 26.3869L110.246 27.1491Z" fill="white"/>
<path d="M70.7913 22.1321V25.6599H69.7653L69.2523 23.3081H66.8156V32.1353L68.5149 32.5116V33.421H63.0323V32.5116L64.7351 32.1353V23.3081H62.2788L61.7818 25.6599H60.7559V22.1321H70.7913ZM73.212 29.4072C73.1921 30.0131 73.3013 30.6165 73.5326 31.1789C73.6703 31.5214 73.9147 31.8129 74.2312 32.0121C74.5477 32.2112 74.9202 32.308 75.296 32.2887C75.7832 32.2873 76.2645 32.183 76.7067 31.9829C77.1778 31.7699 77.586 31.4436 77.893 31.0343L78.7587 31.6929C78.3584 32.2389 77.8419 32.6936 77.2446 33.0256C76.5264 33.4115 75.7151 33.6011 74.8961 33.5743C74.1906 33.5943 73.4919 33.435 72.8682 33.1118C72.3049 32.8012 71.854 32.3273 71.5777 31.7556C71.4105 31.4147 71.2907 31.0535 71.2214 30.6816C71.1435 30.2547 71.106 29.8217 71.1092 29.388C71.0295 28.1726 71.393 26.9689 72.1352 25.9909C72.499 25.586 72.9528 25.2679 73.4618 25.0611C73.9708 24.8542 74.5214 24.7641 75.0716 24.7976C75.607 24.7914 76.1393 24.8799 76.6426 25.0589C77.0904 25.2174 77.4978 25.4688 77.8369 25.7958C78.1724 26.1296 78.4295 26.5309 78.5904 26.9717C78.7746 27.4772 78.8651 28.0109 78.8575 28.5475C78.8575 28.6636 78.8549 28.776 78.8495 28.8846C78.8442 28.9932 78.8308 29.1674 78.8094 29.4072H73.212ZM75.0395 25.8794C73.9387 25.8794 73.3349 26.7214 73.228 28.4055H76.7584V27.9978C76.7964 27.4409 76.6393 26.8879 76.3131 26.4299C76.1605 26.2461 75.9655 26.1004 75.7441 26.0047C75.5226 25.909 75.2812 25.866 75.0395 25.8794ZM84.2253 24.7976C84.6855 24.7941 85.144 24.8527 85.5879 24.9718C85.9753 25.0733 86.3416 25.2404 86.67 25.4657C86.9639 25.669 87.2074 25.9342 87.3825 26.2418C87.5546 26.5492 87.6429 26.8948 87.639 27.2452C87.653 27.4405 87.6261 27.6364 87.5599 27.8211C87.4938 28.0058 87.3897 28.1753 87.2542 28.3193C87.1301 28.4398 86.9823 28.5345 86.8197 28.5979C86.6572 28.6612 86.4833 28.6917 86.3084 28.6877C86.1264 28.6941 85.9453 28.6592 85.7794 28.5858C85.6462 28.5223 85.5286 28.4314 85.4347 28.3193C85.3447 28.2111 85.2791 28.0855 85.2423 27.9508C85.2053 27.8179 85.1865 27.6809 85.1862 27.5431C85.1797 27.3035 85.2497 27.0678 85.3866 26.8689C85.5345 26.6709 85.7463 26.5273 85.9878 26.4613C85.8093 26.2532 85.5767 26.0961 85.3145 26.0066C84.992 25.887 84.6494 25.8278 84.3045 25.8324C83.9934 25.8269 83.6846 25.8863 83.3988 26.0066C83.1287 26.1284 82.8984 26.3211 82.7335 26.5632C82.529 26.8736 82.3875 27.2196 82.3167 27.5823C82.2117 28.0958 82.1633 28.6188 82.1724 29.1424C82.1617 29.5893 82.1993 30.036 82.2846 30.4751C82.3485 30.769 82.4508 31.0536 82.5892 31.3218C82.7452 31.6087 82.9709 31.8537 83.2465 32.0352C83.5546 32.2195 83.9116 32.3104 84.2725 32.2965C84.5018 32.2947 84.7303 32.2684 84.9538 32.2181C85.196 32.1653 85.4323 32.0891 85.6591 31.9908C85.8932 31.889 86.1139 31.76 86.3164 31.6066C86.5283 31.4463 86.7147 31.2561 86.8695 31.0422L87.7352 31.7007C87.2971 32.325 86.6971 32.824 85.9967 33.1466C85.3333 33.4354 84.6147 33.5823 83.8886 33.5778C83.1873 33.6007 82.4917 33.4469 81.8687 33.131C81.3189 32.8286 80.8727 32.374 80.5862 31.8244C80.3935 31.4602 80.2506 31.0727 80.1614 30.672C80.0567 30.2104 80.0056 29.7388 80.0091 29.2661C80.0005 28.6406 80.098 28.0181 80.2977 27.4238C80.4731 26.9039 80.7539 26.424 81.1233 26.0127C81.4873 25.6166 81.9399 25.3081 82.4458 25.1112C83.0124 24.8943 83.6169 24.7878 84.2253 24.7976ZM95.2546 29.2191C95.2546 28.8846 95.2492 28.5942 95.2386 28.348C95.2279 28.1018 95.213 27.8878 95.194 27.706C95.1827 27.5497 95.1559 27.3948 95.1139 27.2435C95.0813 27.1313 95.0411 27.0213 94.9936 26.9142C94.8637 26.6649 94.6611 26.4588 94.4114 26.3221C94.1617 26.1853 93.8762 26.1241 93.5909 26.146C93.2881 26.1469 92.9904 26.2224 92.7253 26.3655C92.4499 26.5094 92.2219 26.7269 92.068 26.9926C91.968 27.1758 91.8925 27.3707 91.8435 27.5728C91.7735 27.8656 91.7412 28.1658 91.7474 28.4665V32.2451L92.8214 32.543V33.421H88.4735V32.543L89.7079 32.2451V22.3673L88.4735 22.0694V21.1914H91.7438V26.4282C92.0018 25.9462 92.3794 25.5353 92.8419 25.2331C93.286 24.945 93.808 24.7933 94.3408 24.7976C94.735 24.7879 95.1279 24.8436 95.5031 24.9622C95.8166 25.0703 96.0995 25.2494 96.3287 25.4848C96.6846 25.8636 96.9357 26.3251 97.0581 26.8254C97.2309 27.5417 97.309 28.2768 97.2905 29.0126V32.2451L98.5249 32.543V33.421H94.1805V32.543L95.2546 32.2451V29.2191ZM70.3745 42.2657C70.3768 42.8511 70.1602 43.4172 69.7653 43.8571C69.5717 44.0724 69.3411 44.2528 69.084 44.3902C68.8179 44.5327 68.5271 44.6257 68.2263 44.6646V44.7273C68.9802 44.8628 69.6706 45.2288 70.1981 45.7726C70.6812 46.2971 70.9395 46.9832 70.9195 47.6889C70.9251 48.2656 70.7609 48.8316 70.4466 49.3195C70.1589 49.7856 69.7458 50.1652 69.2523 50.4171C69.095 50.4932 68.9315 50.5561 68.7633 50.6052C68.5609 50.6632 68.3547 50.7077 68.1462 50.7385C67.8805 50.7781 67.613 50.8043 67.3446 50.8169C67.0454 50.8337 66.698 50.8421 66.3026 50.8421H61.0284V49.9328L62.375 49.6035V40.7919L61.0284 40.4626V39.5533H66.8957C67.8331 39.4937 68.7594 39.7789 69.4928 40.3529C69.7676 40.5997 69.9885 40.8983 70.142 41.2309C70.2948 41.5555 70.374 41.9084 70.3745 42.2657ZM64.459 45.5287V49.6662H65.7415C66.1385 49.6729 66.5353 49.6467 66.9278 49.5878C67.1919 49.5475 67.4468 49.4626 67.6813 49.337C67.9822 49.1787 68.2278 48.936 68.3866 48.6401C68.5739 48.3001 68.6678 47.9183 68.6591 47.5321C68.6697 47.2116 68.598 46.8936 68.4507 46.6071C68.3195 46.3653 68.1395 46.1519 67.9217 45.9799C67.7014 45.8205 67.4506 45.7059 67.1843 45.6428C66.8051 45.5556 66.416 45.516 66.0265 45.5252L64.459 45.5287ZM64.459 44.3841H65.982C66.281 44.4091 66.5821 44.3733 66.8663 44.2789C67.1505 44.1844 67.4116 44.0334 67.6332 43.8354C67.8041 43.6749 67.9452 43.4866 68.05 43.2788C68.1663 43.0359 68.2267 42.7709 68.2267 42.5027C68.2267 42.2344 68.1663 41.9694 68.05 41.7265C67.9452 41.5187 67.8041 41.3304 67.6332 41.1699C67.1879 40.8153 66.6178 40.6464 66.0461 40.6996H64.459V44.3841ZM74.2557 46.8301C74.2359 47.436 74.3451 48.0393 74.5764 48.6018C74.7135 48.945 74.9577 49.2372 75.2742 49.437C75.5907 49.6368 75.9636 49.7341 76.3398 49.715C76.827 49.7136 77.3083 49.6093 77.7505 49.4093C78.2216 49.1963 78.6298 48.8699 78.9368 48.4607L79.8025 49.1192C79.4022 49.6652 78.8857 50.1199 78.2884 50.4519C77.5702 50.8378 76.7589 51.0274 75.9399 51.0007C75.2344 51.0207 74.5356 50.8613 73.912 50.5381C73.3487 50.2275 72.8978 49.7537 72.6215 49.1819C72.4543 48.841 72.3345 48.4798 72.2652 48.1079C72.1873 47.681 72.1498 47.248 72.153 46.8144C72.0733 45.5989 72.4368 44.3952 73.179 43.4173C73.5421 43.0116 73.9954 42.6927 74.5041 42.485C75.0128 42.2772 75.5633 42.1861 76.1136 42.2187C76.6491 42.2125 77.1813 42.3011 77.6846 42.48C78.1356 42.6359 78.5448 42.8891 78.882 43.2208C79.2192 43.5526 79.4757 43.9544 79.6324 44.3963C79.8166 44.9018 79.9071 45.4355 79.8996 45.9721C79.8996 46.0882 79.8969 46.2006 79.8915 46.3092C79.8862 46.4178 79.8728 46.592 79.8515 46.8318L74.2557 46.8301ZM76.0833 43.3023C74.9825 43.3023 74.3787 44.1443 74.2718 45.8283H77.7986V45.4207C77.8366 44.8638 77.6796 44.3108 77.3533 43.8528C77.2011 43.6689 77.0064 43.523 76.7853 43.427C76.5643 43.331 76.323 43.2876 76.0815 43.3005L76.0833 43.3023ZM87.5455 46.6419C87.5455 46.3074 87.5401 46.0171 87.5294 45.7709C87.5187 45.5246 87.5054 45.3104 87.4893 45.128C87.478 44.9717 87.4512 44.8168 87.4092 44.6655C87.3766 44.5532 87.3365 44.4432 87.289 44.3362C87.1585 44.0856 86.9546 43.8786 86.7033 43.7418C86.4521 43.605 86.1648 43.5444 85.8782 43.568C85.5754 43.5688 85.2777 43.6443 85.0126 43.7875C84.7372 43.9314 84.5092 44.1489 84.3553 44.4146C84.2553 44.5977 84.1798 44.7927 84.1309 44.9947C84.0608 45.2876 84.0285 45.5878 84.0347 45.8884V49.6662L85.1087 49.9641V50.8421H80.7661V49.9641L82.0005 49.6662V39.7884L80.7661 39.4905V38.6125H84.0364V43.8493C84.2932 43.3678 84.6692 42.9569 85.1301 42.6542C85.5742 42.3661 86.0962 42.2144 86.629 42.2187C87.0232 42.209 87.4161 42.2647 87.7913 42.3833C88.1048 42.4914 88.3877 42.6705 88.6169 42.906C88.9728 43.2847 89.2239 43.7462 89.3463 44.2465C89.5191 44.9629 89.5972 45.6979 89.5787 46.4337V49.6662L90.8131 49.9641V50.8421H86.466V49.9641L87.5401 49.6662L87.5455 46.6419ZM93.7174 46.8301C93.6975 47.436 93.8067 48.0393 94.038 48.6018C94.176 48.9437 94.4202 49.2346 94.7363 49.4334C95.0524 49.6322 95.4243 49.7289 95.7996 49.7098C96.2869 49.7084 96.7681 49.6041 97.2104 49.404C97.6824 49.1925 98.0918 48.8673 98.4002 48.4589L99.2659 49.1175C98.8656 49.6635 98.3491 50.1182 97.7519 50.4502C97.0336 50.8361 96.2224 51.0257 95.4033 50.9989C94.6978 51.0189 93.9991 50.8596 93.3754 50.5364C92.8092 50.2271 92.3553 49.7531 92.0769 49.1802C91.9097 48.8393 91.7899 48.4781 91.7206 48.1062C91.6427 47.6793 91.6052 47.2463 91.6084 46.8126C91.5287 45.5972 91.8922 44.3935 92.6344 43.4155C92.9984 43.0094 93.4528 42.6903 93.9626 42.4828C94.4724 42.2753 95.0241 42.185 95.5752 42.2187C96.1107 42.2125 96.6429 42.3011 97.1462 42.48C97.5972 42.6359 98.0065 42.8891 98.3437 43.2208C98.6808 43.5526 98.9373 43.9544 99.094 44.3963C99.2783 44.9018 99.3687 45.4355 99.3612 45.9721C99.3612 46.0882 99.3585 46.2006 99.3532 46.3092C99.3478 46.4178 99.3345 46.592 99.3131 46.8318L93.7174 46.8301ZM95.5449 43.3023C94.4441 43.3023 93.8403 44.1443 93.7334 45.8283H97.2602V45.4207C97.2983 44.8638 97.1412 44.3108 96.8149 43.8528C96.6627 43.6689 96.4681 43.523 96.247 43.427C96.0259 43.331 95.7847 43.2876 95.5431 43.3005L95.5449 43.3023ZM101.653 43.5531L100.418 43.2552V42.3755H103.21L103.566 43.9434H103.63C103.927 43.4242 104.356 42.9893 104.877 42.6812C105.375 42.3785 105.95 42.2183 106.536 42.2187C106.943 42.2098 107.346 42.2929 107.714 42.4617C108.014 42.5933 108.272 42.802 108.46 43.0654C108.655 43.3859 108.796 43.7354 108.876 44.1002C109.191 43.5334 109.649 43.0554 110.207 42.7126C110.73 42.3896 111.336 42.2183 111.954 42.2187C112.354 42.212 112.75 42.2951 113.112 42.4617C113.434 42.6061 113.706 42.8373 113.898 43.1281C114.003 43.294 114.084 43.4734 114.138 43.6612C114.212 43.9155 114.265 44.1749 114.299 44.4373C114.341 44.7456 114.371 45.1089 114.388 45.527C114.404 45.9451 114.412 46.4363 114.412 47.0008V49.6662L115.646 49.9641V50.8421H111.286V49.9641L112.36 49.6662V46.6402C112.36 46.3057 112.354 46.0153 112.344 45.7691C112.333 45.5229 112.317 45.3086 112.296 45.1263C112.279 44.9706 112.252 44.8161 112.215 44.6637C112.188 44.551 112.15 44.4409 112.103 44.3345C112.024 44.1192 111.875 43.9354 111.678 43.8119C111.511 43.7149 111.32 43.6635 111.125 43.6629C110.875 43.6587 110.626 43.6958 110.388 43.7727C110.157 43.8567 109.945 43.9845 109.764 44.1489C109.535 44.3493 109.357 44.5989 109.243 44.878C109.118 45.2231 109.05 45.5858 109.043 45.952V49.6662L110.117 49.9641V50.8421H105.931V49.9641L107.005 49.6662V46.6402C107.005 46.3057 107 46.0153 106.989 45.7691C106.979 45.5229 106.963 45.3086 106.941 45.1263C106.925 44.9706 106.898 44.8161 106.861 44.6637C106.833 44.551 106.796 44.4409 106.749 44.3345C106.67 44.1192 106.521 43.9354 106.324 43.8119C106.156 43.7149 105.966 43.6635 105.771 43.6629C105.521 43.6587 105.271 43.6958 105.034 43.7727C104.802 43.8567 104.59 43.9845 104.41 44.1489C104.181 44.3493 104.003 44.5989 103.889 44.878C103.764 45.2231 103.696 45.5858 103.689 45.952V49.6662L104.763 49.9641V50.8421H100.417V49.9641L101.651 49.6662L101.653 43.5531ZM124.802 46.6106C124.806 47.2517 124.706 47.8895 124.505 48.4999C124.332 49.0482 124.039 49.5533 123.647 49.9807C123.3 50.3431 122.864 50.6129 122.381 50.7646C121.238 51.0782 120.029 51.0782 118.886 50.7646C118.403 50.6129 117.967 50.3431 117.62 49.9807C117.228 49.5533 116.935 49.0482 116.762 48.4999C116.367 47.27 116.367 45.9511 116.762 44.7212C116.935 44.1729 117.228 43.6678 117.62 43.2404C117.967 42.878 118.403 42.6082 118.886 42.4565C120.029 42.1429 121.238 42.1429 122.381 42.4565C122.864 42.6082 123.3 42.878 123.647 43.2404C124.039 43.6678 124.332 44.1729 124.505 44.7212C124.705 45.3311 124.805 45.9683 124.8 46.6088L124.802 46.6106ZM119.175 49.323C119.36 49.5207 119.586 49.6786 119.837 49.7865C120.088 49.8945 120.359 49.9503 120.633 49.9503C120.908 49.9503 121.179 49.8945 121.43 49.7865C121.681 49.6786 121.907 49.5207 122.092 49.323C122.506 48.4794 122.683 47.5432 122.605 46.6106C122.683 45.6779 122.506 44.7417 122.092 43.8981C121.907 43.7004 121.681 43.5425 121.43 43.4346C121.179 43.3266 120.908 43.2708 120.633 43.2708C120.359 43.2708 120.088 43.3266 119.837 43.4346C119.586 43.5425 119.36 43.7004 119.175 43.8981C118.761 44.7417 118.584 45.6779 118.662 46.6106C118.583 47.5425 118.76 48.478 119.173 49.3213L119.175 49.323ZM125.475 42.595L127.046 42.3755L127.238 40.4313L129.064 40.1804V42.3755H131.112V43.3946H129.064V48.5216C129.064 48.877 129.069 49.1201 129.08 49.2507C129.086 49.3602 129.108 49.4684 129.144 49.5721C129.182 49.6401 129.246 49.6907 129.322 49.7133C129.458 49.751 129.598 49.7669 129.739 49.7603H130.861V50.4502C130.322 50.6182 129.773 50.7569 129.218 50.8657C128.846 50.9429 128.468 50.9875 128.088 50.9989C127.888 51.0205 127.688 50.9748 127.518 50.8692C127.349 50.7637 127.222 50.6048 127.158 50.4188C127.098 50.2656 127.063 50.1043 127.054 49.9406C127.038 49.7472 127.03 49.4519 127.03 49.0547V43.3929H125.475V42.595ZM138.332 46.6402C138.332 46.3057 138.326 46.0153 138.316 45.7691C138.305 45.5229 138.292 45.3086 138.276 45.1263C138.264 44.9699 138.237 44.815 138.195 44.6637C138.163 44.5515 138.123 44.4415 138.075 44.3345C137.945 44.0838 137.741 43.8769 137.49 43.74C137.238 43.6032 136.951 43.5427 136.664 43.5662C136.362 43.5671 136.064 43.6426 135.799 43.7857C135.523 43.9297 135.295 44.1472 135.142 44.4129C135.042 44.596 134.966 44.791 134.917 44.993C134.847 45.2858 134.815 45.586 134.821 45.8867V49.6662L135.895 49.9641V50.8421H131.549V49.9641L132.783 49.6662V39.7884L131.549 39.4905V38.6125H134.819V43.8493C135.077 43.3673 135.455 42.9564 135.917 42.6542C136.361 42.3661 136.883 42.2144 137.416 42.2187C137.81 42.209 138.203 42.2647 138.578 42.3833C138.892 42.4914 139.175 42.6705 139.404 42.906C139.76 43.2847 140.011 43.7462 140.133 44.2465C140.306 44.9629 140.384 45.6979 140.366 46.4337V49.6662L141.6 49.9641V50.8421H137.256V49.9641L138.33 49.6662L138.332 46.6402ZM145.692 50.0425C145.945 50.044 146.198 50.0177 146.445 49.9641C146.66 49.919 146.868 49.8452 147.062 49.7446C147.227 49.6602 147.37 49.5394 147.479 49.3918C147.58 49.2521 147.634 49.0848 147.631 48.9136C147.635 48.713 147.563 48.5181 147.431 48.3649C147.283 48.1969 147.104 48.0585 146.902 47.9572C146.666 47.835 146.419 47.7327 146.165 47.6515C145.892 47.5626 145.622 47.4755 145.355 47.3901C145.023 47.2959 144.699 47.178 144.385 47.0374C144.077 46.9008 143.791 46.7212 143.536 46.5043C143.286 46.292 143.082 46.0336 142.934 45.7439C142.778 45.4208 142.701 45.0664 142.71 44.709C142.697 44.3649 142.766 44.0225 142.911 43.7084C143.055 43.3944 143.272 43.1171 143.544 42.8981C144.233 42.4024 145.079 42.1609 145.932 42.2161C146.381 42.2109 146.828 42.2636 147.263 42.3729C147.624 42.462 147.966 42.6134 148.273 42.8197C148.538 43.0001 148.76 43.2357 148.922 43.5096C149.077 43.7748 149.157 44.0753 149.154 44.3806C149.166 44.5316 149.145 44.6833 149.094 44.8262C149.043 44.9691 148.963 45.1003 148.858 45.2116C148.749 45.3089 148.621 45.3839 148.482 45.4324C148.343 45.4808 148.196 45.5017 148.048 45.4939C147.76 45.5108 147.475 45.4244 147.247 45.2508C147.158 45.1828 147.086 45.096 147.036 44.997C146.986 44.8979 146.959 44.789 146.958 44.6786C146.959 44.497 147.015 44.3198 147.118 44.169C147.22 44.0113 147.365 43.8839 147.535 43.8005C147.38 43.5974 147.173 43.4379 146.934 43.338C146.637 43.2197 146.317 43.1636 145.996 43.1734C145.597 43.1432 145.2 43.2515 144.874 43.4791C144.75 43.5849 144.653 43.7167 144.589 43.8648C144.525 44.0128 144.497 44.1732 144.505 44.3336C144.492 44.5105 144.523 44.688 144.596 44.8506C144.668 45.0131 144.78 45.1559 144.922 45.2665C145.263 45.4994 145.643 45.6719 146.044 45.7761C146.472 45.9015 146.894 46.0322 147.311 46.1681C147.701 46.2919 148.075 46.4603 148.425 46.6698C148.737 46.8553 149.005 47.1039 149.211 47.3989C149.415 47.7098 149.519 48.0743 149.507 48.4441C149.514 48.8273 149.411 49.2046 149.211 49.5338C149.006 49.8593 148.726 50.1332 148.393 50.3334C148.014 50.5608 147.6 50.7275 147.167 50.8273C146.668 50.9462 146.157 51.0047 145.644 51.0015C144.807 51.0478 143.975 50.8572 143.247 50.4528C142.982 50.3009 142.763 50.083 142.612 49.8213C142.462 49.5596 142.385 49.2636 142.389 48.9633C142.378 48.7803 142.405 48.5971 142.469 48.4246C142.532 48.2522 142.63 48.094 142.758 47.9598C142.872 47.844 143.009 47.7522 143.161 47.6902C143.312 47.6282 143.475 47.5972 143.64 47.5992C143.894 47.5987 144.142 47.6724 144.352 47.8109C144.457 47.8742 144.542 47.9633 144.6 48.0694C144.657 48.1754 144.685 48.2945 144.681 48.4145C144.678 48.6106 144.616 48.8014 144.503 48.9633C144.403 49.1235 144.266 49.258 144.102 49.3552C144.239 49.5498 144.42 49.7108 144.631 49.8256C144.958 49.9897 145.325 50.0647 145.692 50.0425Z" fill="white"/>
<path fill-rule="evenodd" clip-rule="evenodd" d="M37.5636 24.4662H31.4665V17.0117H46.7102C46.7102 18.4847 42.8352 24.4662 37.5636 24.4662ZM3.37305 6.36134V3.80566L12.2569 3.82309V3.81437L36.1191 3.80566C42.7853 3.80566 46.7102 8.97973 46.7102 11.2602H9.68837C9.68837 8.85779 7.95792 6.36134 3.37305 6.36134ZM9.68837 17.0117H24.7148V24.4662H9.68837V17.0117ZM24.7148 37.6714H9.68837V30.2169H24.7148V37.6714ZM31.4656 30.2169H38.2164C45.059 30.2169 48.4523 35.5757 48.4523 37.6714H31.4665L31.4656 30.2169ZM9.68837 43.423H24.7148V46.618H31.4656V43.423L48.4523 43.4282C48.4523 46.058 43.5637 50.8784 38.4347 50.8784H3.37305V48.3218C7.9214 48.3218 9.68837 45.97 9.68837 43.423Z" fill="#3672FF"/>
</svg>
